<svg width="443" height="318" viewBox="0 0 443 318" fill="none" xmlns="http://www.w3.org/2000/svg">
<path d="M0 9.99999C0 4.47714 4.47715 0 10 0H433C438.523 0 443 4.47715 443 10V318H0V9.99999Z" fill="#F2F7FF"/>
<g clip-path="url(#clip0_133_268)">
<path d="M278.85 253.531L313.473 219.761C318.276 214.944 316.177 206.728 309.732 205.111L216.46 181.712L278.85 253.531Z" fill="#E4E6F2"/>
<path d="M326.834 175.462C358.393 122.035 305.467 49.9356 219.277 54.9882C177.769 57.4084 92.5112 99.4956 91.9999 172.989C91.7651 206.634 139.34 243.191 191.388 197.763C229.431 164.558 298.567 223.322 326.834 175.462Z" fill="#EBEDFA"/>
<path d="M283.921 89.9813C280.085 100.56 285.001 107.889 269.481 126.603C263.573 133.727 260.391 146.022 258.714 158.517L277.15 190.915C292.204 176.633 307.58 150.01 304.653 138.371C301.718 126.671 305.509 117.505 313.742 105.798C328.69 84.5083 312.682 55.776 312.682 55.776C312.682 55.776 290.178 72.729 283.921 89.9813Z" fill="#BBCAF2"/>
<path d="M303.104 81.0465C302.945 80.9778 302.766 80.9747 302.605 81.0378C302.443 81.101 302.314 81.2253 302.244 81.3836C288.637 112.82 276.843 141.393 267.761 174.409L268.674 176.015C277.786 142.533 289.686 113.684 303.441 81.9025C303.475 81.8242 303.494 81.7398 303.496 81.6543C303.497 81.5688 303.482 81.4838 303.451 81.4042C303.419 81.3246 303.373 81.2521 303.313 81.1907C303.254 81.1293 303.182 81.0803 303.104 81.0465Z" fill="#9BB3F0"/>
<path d="M272.802 150.866C268.549 156.926 263.921 167.493 259.888 178.186L275.567 205.736C300.483 189.45 317.169 143.783 317.169 143.783C346.975 153.029 356 127.989 356 127.989C296.556 106.082 272.802 150.866 272.802 150.866Z" fill="#AABBE6"/>
<path d="M324.456 130.379C324.274 130.44 306.133 136.761 289.413 151.283C279.566 159.824 272.147 169.493 267.322 180.022C266.335 182.181 265.451 184.378 264.671 186.613L265.576 188.207C270.802 172.262 280.869 160.426 290.223 152.294C306.747 137.928 324.687 131.675 324.865 131.61C324.949 131.585 325.027 131.543 325.094 131.486C325.161 131.43 325.216 131.361 325.256 131.283C325.296 131.205 325.32 131.12 325.326 131.032C325.332 130.945 325.321 130.857 325.292 130.774C325.263 130.692 325.218 130.615 325.16 130.55C325.101 130.485 325.03 130.433 324.95 130.396C324.871 130.359 324.785 130.338 324.697 130.336C324.61 130.333 324.523 130.348 324.441 130.379H324.456Z" fill="#8BA3E0"/>
<path d="M327.119 196.194C327.638 193.995 326.276 191.792 324.078 191.273C321.879 190.754 319.676 192.116 319.158 194.315C318.639 196.514 320 198.717 322.199 199.236C324.397 199.755 326.6 198.393 327.119 196.194Z" stroke="#272B47" stroke-width="2.11" stroke-linecap="round" stroke-linejoin="round"/>
<path d="M128.839 139.109C130.437 137.511 130.437 134.921 128.839 133.324C127.242 131.726 124.652 131.726 123.055 133.324C121.458 134.921 121.458 137.511 123.055 139.109C124.652 140.706 127.242 140.706 128.839 139.109Z" stroke="#272B47" stroke-width="2.11" stroke-linecap="round" stroke-linejoin="round"/>
<path d="M246.569 57.3834C248.166 55.786 248.166 53.196 246.569 51.5985C244.971 50.0011 242.382 50.0011 240.784 51.5985C239.187 53.196 239.187 55.786 240.784 57.3834C242.382 58.9809 244.971 58.9809 246.569 57.3834Z" stroke="#272B47" stroke-width="2.11" stroke-linecap="round" stroke-linejoin="round"/>
<path d="M270.962 256.11L175.626 237.127C174.157 236.849 172.839 236.049 171.914 234.874C170.99 233.7 170.522 232.23 170.596 230.738L174.065 85.4854C174.194 80.0844 179.981 75.3841 185.348 76.3196L280.74 92.9848C284.012 93.5567 286.145 96.136 286.069 99.4236L282.505 248.679C282.373 254.224 276.374 257.284 270.962 256.11Z" fill="#7B90C7"/>
<path d="M268.53 257.641L173.194 238.654C171.726 238.376 170.408 237.577 169.483 236.403C168.559 235.229 168.09 233.76 168.165 232.268L171.634 87.0118C171.763 81.6108 177.55 76.9105 182.916 77.8498L278.309 94.515C281.581 95.0869 283.713 97.6662 283.637 100.954L280.074 250.221C279.941 255.754 273.942 258.815 268.53 257.641Z" fill="#2D54A6"/>
<path d="M181.026 90.413L177.853 227.844L273.499 246.952L276.65 108.635L181.026 90.413Z" fill="#ABB9E0"/>
<path d="M268.773 251.005L173.126 231.897L176.3 94.4657L271.924 112.688L268.773 251.005Z" fill="#FAFBFF"/>
<path d="M244.515 97.6397L239.047 96.6019L239.175 94.1173C239.528 87.2429 234.002 80.5124 226.897 79.1641C219.792 77.8119 213.695 82.3342 213.343 89.2086L213.214 91.6933L207.749 90.6517C202.746 89.701 198.451 92.8863 198.205 97.7268C197.959 102.567 201.848 107.309 206.851 108.26L243.618 115.244C248.617 116.195 252.912 113.013 253.162 108.169C253.412 103.329 249.518 98.5904 244.515 97.6397ZM226.742 91.8031L225.772 91.6175C224.015 91.2842 222.652 89.6215 222.743 87.9209C222.834 86.2203 224.337 85.1067 226.091 85.44L227.06 85.6218C228.817 85.9551 230.181 87.6217 230.09 89.3185C229.999 91.0153 228.495 92.1364 226.742 91.8031Z" fill="#B5C6FF"/>
<path d="M256.517 213.379L186.7 199.646C185.526 199.415 184.59 198.15 184.624 196.832V196.669C184.658 195.351 185.651 194.461 186.825 194.692L256.642 208.425C257.816 208.656 258.748 209.921 258.714 211.239V211.402C258.68 212.72 257.691 213.61 256.517 213.379Z" fill="#CED9F5"/>
<path d="M246.019 262.451L267.636 277.506L272.128 264.144L243.894 256.675L246.019 262.451Z" fill="#E0DCF2"/>
<path d="M245.769 257.644L245.39 257.542C245.148 255.781 243.762 254.156 241.224 253.027L225.462 246.001C219.921 243.528 211.01 244.342 205.56 247.819L197.898 252.705C194.615 254.8 193.354 257.383 194.054 259.644C193.342 262.068 194.683 264.454 198.069 265.966L199.819 266.746L167.866 290.679L168.218 294.493L173.819 297.076L182.886 294.046L211.051 272.954L213.703 273.666L195.456 297.182V302.171L202.186 304L209.381 300.565L227.367 277.389L232.074 278.669C237.376 280.108 244.334 277.817 247.64 273.552L249.367 271.329C250.995 269.23 251.431 267.045 250.825 265.193C251.794 261.86 249.916 258.773 245.769 257.644Z" fill="#E0DCF2"/>
<path d="M228.692 277.161L206.424 271.101C201.121 269.662 199.535 265.041 202.845 260.773L204.568 258.55C207.878 254.285 214.846 251.993 220.133 253.433L242.402 259.493C247.704 260.928 249.291 265.553 245.981 269.817L244.258 272.041C240.948 276.328 233.979 278.601 228.692 277.161Z" fill="#89A1DE"/>
<path d="M205.996 299.057L198.804 302.493L192.07 300.663L192.059 295.675L216.441 269.261L226.909 272.109L205.996 299.057Z" fill="#89A1DE"/>
<path d="M228.685 273.806L206.416 267.746C201.114 266.31 199.527 261.686 202.837 257.421L204.56 255.198C207.87 250.933 214.839 248.641 220.126 250.081L242.395 256.141C247.697 257.58 249.284 262.201 245.974 266.469L244.25 268.693C240.94 272.954 233.972 275.245 228.685 273.806Z" fill="#BFCEF5"/>
<path d="M205.984 294.069L198.792 297.504L192.059 295.675L216.429 264.272L226.897 267.121L205.984 294.069Z" fill="#BFCEF5"/>
<path d="M210.449 271.484L194.71 264.458C189.169 261.989 189.093 257.167 194.543 253.69L202.205 248.804C207.654 245.331 216.566 244.517 222.106 246.986L237.865 254.012C243.406 256.482 243.478 261.303 238.028 264.78L230.366 269.666C224.901 273.139 215.99 273.953 210.449 271.484Z" fill="#89A1DE"/>
<path d="M179.511 292.539L170.441 295.569L164.844 292.986L164.488 289.168L206.863 261.511L215.573 265.53L179.511 292.539Z" fill="#89A1DE"/>
<path d="M179.155 288.725L170.089 291.751L164.488 289.168L206.507 257.697L215.217 261.712L179.155 288.725Z" fill="#BFCEF5"/>
<path d="M210.442 268.992L194.687 261.966C189.146 259.493 189.074 254.675 194.524 251.198L202.186 246.312C207.636 242.835 216.547 242.021 222.088 244.494L237.842 251.52C243.383 253.989 243.459 258.811 238.005 262.284L230.347 267.17C224.894 270.647 215.986 271.461 210.442 268.992Z" fill="#BFCEF5"/>
<path d="M212.237 264.125L201.341 259.284C197.508 257.576 197.459 254.243 201.227 251.842L206.53 248.463C210.298 246.058 216.46 245.494 220.292 247.202L231.188 252.061C235.021 253.77 235.07 257.103 231.302 259.508L226 262.886C222.231 265.272 216.07 265.833 212.237 264.125Z" stroke="white" stroke-width="1.65" stroke-miterlimit="10"/>
<path d="M226.144 251.202C225.304 251.43 224.427 251.488 223.564 251.372C222.701 251.255 221.871 250.967 221.122 250.524C219.819 249.656 219.955 248.554 221.425 248.066C222.264 247.837 223.14 247.779 224.002 247.895C224.864 248.012 225.694 248.3 226.443 248.744C227.761 249.611 227.624 250.713 226.144 251.202Z" fill="#89A1DE"/>
<path d="M223.799 250.134C224.935 243.964 229.48 238.226 234.885 236.555C241.179 234.616 246.292 238.896 246.311 246.119C246.264 249.472 245.297 252.747 243.516 255.588" stroke="#142B6B" stroke-width="3.08" stroke-linecap="round" stroke-linejoin="round"/>
<path d="M167.866 290.853L202.451 265.602" stroke="white" stroke-width="1.65" stroke-linecap="round" stroke-linejoin="round"/>
<path d="M215.592 273.775L196.418 296.641" stroke="white" stroke-width="1.65" stroke-linecap="round" stroke-linejoin="round"/>
<path d="M245.212 244.047C245.076 244.38 244.58 244.123 244.587 243.721C244.675 238.589 256.555 227.454 267.398 240.312C280.888 256.326 280.275 276.499 290.614 278.82C282.259 280.714 280.975 278.669 277.517 276.824C281.494 282.472 288.209 285.009 288.209 285.009C289.205 285.619 264.667 286.396 262.622 267.556C260.513 248.085 248.916 234.995 245.212 244.047Z" fill="#F9A56E"/>
<path d="M245.56 187.06C259.174 175.896 259.751 154.089 246.848 138.352C233.946 122.614 212.45 118.907 198.836 130.07C185.222 141.234 184.645 163.042 197.548 178.779C210.451 194.516 231.947 198.224 245.56 187.06Z" fill="#ABB9E0"/>
<path d="M239.312 183.075L202.436 176.765L203.151 148.34L221.72 133.886L240.028 154.654L239.312 183.075Z" fill="white"/>
<path d="M203.151 148.343L202.435 148.219C201.504 148.059 201.076 146.828 201.769 146.291L220.743 131.561C221.451 131.012 222.542 131.201 223.212 131.989L241.114 153.036C241.773 153.816 241.27 154.896 240.327 154.714L240.027 154.654L221.887 134.159L203.151 148.343Z" fill="#2D54A6"/>
<path d="M226.848 180.95L214.487 178.833L214.945 160.645L227.306 162.763L226.848 180.95Z" fill="#CED9F5"/>
<path d="M223.183 154.504C224.566 153.37 224.624 151.154 223.313 149.554C222.001 147.954 219.817 147.577 218.434 148.711C217.051 149.845 216.993 152.061 218.305 153.661C219.616 155.26 221.801 155.638 223.183 154.504Z" fill="#CED9F5"/>
<path d="M234.316 224.223L202.746 217.44C201.988 217.234 201.316 216.793 200.825 216.18C200.334 215.568 200.051 214.815 200.015 214.031C199.97 212.466 201.125 211.455 202.591 211.758L234.157 218.545C234.915 218.75 235.588 219.191 236.079 219.804C236.57 220.417 236.853 221.17 236.888 221.954C236.933 223.526 235.782 224.537 234.316 224.223Z" fill="#CED9F5"/>
<path d="M192.816 215.409L194.986 214.697L200.909 222.504L198.993 223.132L196.224 219.106C195.679 218.311 195.031 217.383 194.479 216.534H194.429C194.596 217.512 194.778 218.595 194.918 219.519L195.615 224.227L193.763 224.833L192.816 215.409ZM193.986 220.739L197.811 219.485L198.417 221L194.592 222.254L193.986 220.739Z" fill="#6F92F2"/>
<path d="M198.497 213.55L201.333 212.618C203.068 212.046 204.742 212.266 205.571 214.364C206.378 216.39 205.299 217.773 203.602 218.314L202.576 218.652L203.742 221.576L201.939 222.166L198.497 213.55ZM202.882 216.799C203.875 216.474 204.155 215.841 203.795 214.944C203.435 214.046 202.799 213.887 201.845 214.186L200.924 214.485L201.962 217.087L202.882 216.799Z" fill="#6F92F2"/>
<path d="M205.863 211.133L208.7 210.202C210.434 209.633 212.108 209.849 212.938 211.948C213.744 213.978 212.665 215.356 210.968 215.902L209.942 216.239L211.108 219.163L209.298 219.754L205.863 211.133ZM210.237 214.387C211.23 214.061 211.51 213.425 211.15 212.531C210.79 211.637 210.154 211.474 209.2 211.773L208.279 212.076L209.317 214.678L210.237 214.387Z" fill="#6F92F2"/>
<path d="M213.161 208.74L216.001 207.808C217.694 207.251 219.342 207.429 220.167 209.478C220.955 211.463 219.902 212.77 218.209 213.326L217.179 213.663L218.414 216.765L216.6 217.364L213.161 208.74ZM217.433 211.826C218.383 211.516 218.717 210.906 218.38 210.061C218.043 209.217 217.418 209.092 216.486 209.402L215.604 209.694L216.569 212.118L217.433 211.826ZM218.414 211.262L222.902 215.292L220.879 215.955L217.66 212.925L218.414 211.262Z" fill="#6F92F2"/>
<path d="M221.834 210.724C220.698 207.842 221.379 205.861 223.284 205.236C225.189 204.611 227.117 205.732 228.264 208.615C229.439 211.565 228.749 213.538 226.844 214.178C224.939 214.819 223.008 213.675 221.834 210.724ZM226.409 209.209C225.697 207.418 224.788 206.637 223.955 206.91C223.121 207.183 222.974 208.312 223.69 210.103C224.447 211.963 225.341 212.754 226.174 212.482C227.007 212.209 227.151 211.08 226.409 209.221V209.209Z" fill="#6F92F2"/>
<path d="M227.204 204.13L229.12 203.501L231.684 207.202C232.294 208.065 232.821 208.883 233.423 209.755H233.472C233.336 208.724 233.161 207.796 233.014 206.781L232.355 202.456L234.207 201.85L235.233 211.247L233.055 211.959L227.204 204.13Z" fill="#6F92F2"/>
<path d="M235.517 201.403L240.819 199.665L241.474 201.301L237.982 202.437L238.672 204.164L241.637 203.191L242.288 204.827L239.323 205.8L240.115 207.785L243.728 206.6L244.379 208.236L238.952 210.046L235.517 201.403Z" fill="#6F92F2"/>
<path d="M242.607 199.062L244.815 198.339C247.136 197.582 249.181 198.384 250.363 201.346C251.545 204.308 250.571 206.198 248.352 206.925L246.042 207.683L242.607 199.062ZM247.53 205.422C248.776 205.013 249.337 204.02 248.515 201.956C247.693 199.892 246.595 199.532 245.349 199.941L245.049 200.04L247.231 205.52L247.53 205.422Z" fill="#6F92F2"/>
<path d="M193.278 232.828C192.453 232.846 191.643 232.607 190.959 232.146C190.275 231.685 189.75 231.024 189.457 230.253L183.185 214.5C182.428 212.58 183.246 210.542 185.026 209.955L248.791 189.037C250.575 188.45 252.643 189.541 253.408 191.461L259.683 207.213C260.441 209.133 259.619 211.171 257.839 211.758L194.077 232.677C193.819 232.763 193.55 232.813 193.278 232.828ZM249.81 190.268C249.642 190.277 249.477 190.309 249.318 190.362L185.552 211.281C184.45 211.66 183.939 212.91 184.416 214.099L190.691 229.851C191.165 231.041 192.449 231.719 193.551 231.366L257.313 210.425C258.415 210.046 258.93 208.796 258.449 207.607L252.181 191.866C251.999 191.387 251.674 190.976 251.249 190.69C250.825 190.404 250.322 190.256 249.81 190.268Z" fill="#6F92F2"/>
<path d="M105.138 267.106C110.061 264.197 118.601 263.723 124.244 266.045C125.111 266.392 125.931 266.843 126.687 267.39C130.179 266.125 134.97 266.098 138.31 267.473C142.275 269.105 142.696 272.086 139.246 274.128C135.928 276.093 130.255 276.472 126.297 275.048C126.07 275.207 125.831 275.366 125.574 275.518C120.65 278.426 112.11 278.9 106.467 276.574C100.824 274.249 100.23 270.011 105.138 267.106Z" fill="#E4E6F2"/>
<path d="M139.613 269.011L135.39 264.272C134.501 263.926 133.53 263.843 132.595 264.034C132.403 264.061 132.227 264.158 132.103 264.307C131.978 264.457 131.914 264.646 131.921 264.841L131.83 265.651C131.724 267.003 131.565 267.45 132.417 267.874L137.454 270.404C138.496 271.181 141.382 270.726 139.613 269.011Z" fill="#313363"/>
<path d="M135.25 264.765C135.25 264.765 137.666 267.59 137.367 267.795C136.125 268.666 133.122 266.197 133.122 266.197C133.122 266.197 134.69 264.632 135.25 264.765Z" fill="#DE5840"/>
<path d="M132.16 265.534C133.038 267.087 135.371 266.015 135.459 264.356C135.171 255.088 136.947 247.755 136.682 239.089C136.386 229.363 135.667 229.219 135.193 214.307L126.191 216C128.164 226.677 129.251 240.199 129.251 240.199C127.149 250.664 130.058 252.808 132.16 265.534Z" fill="#DE5840"/>
<path d="M112.311 271.821L112.194 266.318C111.8 265.589 111.206 264.988 110.482 264.587C110.339 264.496 110.168 264.462 110.001 264.491C109.835 264.52 109.685 264.609 109.58 264.742L109.069 265.227C108.236 266.056 107.88 266.265 108.198 267.022L110.092 271.529C110.353 272.628 112.527 273.953 112.311 271.821Z" fill="#313363"/>
<path d="M111.815 266.556C111.815 266.556 111.815 269.78 111.5 269.749C110.194 269.624 109.565 266.644 109.565 266.644C109.565 266.644 111.527 266.159 111.815 266.556Z" fill="#DE5840"/>
<path d="M109.565 266.644C109.997 268.371 111.459 267.893 111.97 266.318C114.152 257.307 117.81 250.706 119.855 242.286C122.154 232.817 121.499 232.495 124.998 217.996L115.871 217.239C114.939 228.056 112.398 241.384 112.398 241.384C107.603 250.91 110.917 253.811 109.565 266.644Z" fill="#DE5840"/>
<path d="M136.492 203.808C136.492 203.808 138.946 203.024 138.659 236.033C138.659 236.033 135.917 238.021 128.278 239.722C121.082 241.324 116.2 235.071 110.379 236.745C110.379 236.745 113.833 230.34 113.269 227.405C112.705 224.469 111.993 203.998 118.465 203.259C124.937 202.52 136.492 203.808 136.492 203.808Z" fill="#2D54A6"/>
<path d="M110.383 236.752C110.383 236.752 113.833 230.348 113.269 227.408C112.705 224.469 111.656 202.388 118.128 201.653C119.605 201.486 119.624 206.149 121.605 205.891C121.226 208.774 120.45 213.504 118.87 221.25C116.765 231.575 121.415 237.116 125.911 239.994C119.957 240.01 115.557 235.268 110.383 236.752Z" fill="#213361"/>
<path fill-rule="evenodd" clip-rule="evenodd" d="M122.161 169.592C122.161 169.592 118.329 175.273 113.568 176.678C109.648 177.814 108.073 180.549 106.524 184.954C104.047 192.002 97.0331 188.881 96.3741 199.233C95.9689 205.577 102.971 215.178 113.038 209.614C123.104 204.051 131.754 210.542 133.33 189.018C133.603 185.298 132.572 182.674 132.792 179.246C133.031 175.489 130.122 170.156 130.122 170.156L122.161 169.592Z" fill="#24386B"/>
<path d="M134.159 185.806C134.159 185.806 134.159 177.773 129.747 177.879C129.137 177.879 128.111 177.322 127.403 177.356C123.733 177.523 124.252 177.545 121.586 178.56C120.582 178.939 119.935 181.844 120.094 182.931L118.458 186.185L134.159 185.806Z" fill="#DE5840"/>
<path d="M131.258 177.67C130.539 177.568 129.596 177.383 129.69 177.799C130.111 179.636 129.959 180.89 129.312 181.431C125.502 184.693 123.57 180.182 123.165 178.579C123.097 178.307 122.737 177.909 122.464 178.076H122.434C121.533 178.432 120.522 178.379 119.624 178.742C112.012 181.829 114.129 190.965 115.935 194.953C115.935 194.953 119.268 194.695 119.344 197.725C119.401 200.343 117.022 204.369 116.571 205.206C115.984 206.289 119.438 213.118 129.539 212.023C137.492 211.175 138.03 208.035 137.897 203.691C137.814 200.964 136.231 193.347 136.288 191.192C136.345 189.037 138.022 187.647 136.898 184.17C135.773 180.693 135.049 178.329 135.049 178.329L131.258 177.67Z" fill="#6F92F2"/>
<path d="M126.301 178.405L126.487 178.428C126.628 178.448 126.772 178.439 126.91 178.401C127.048 178.363 127.176 178.298 127.288 178.208C127.399 178.119 127.491 178.007 127.558 177.881C127.625 177.755 127.665 177.616 127.676 177.473L127.907 174.065C127.92 173.765 127.82 173.471 127.626 173.242C127.433 173.013 127.159 172.866 126.861 172.83L126.68 172.807C126.066 172.731 125.165 172.989 125.108 173.595L124.71 177.212C124.676 177.807 125.687 178.329 126.301 178.405Z" fill="#DE5840"/>
<path d="M127.808 175.996C127.314 175.989 126.829 175.87 126.388 175.648C125.947 175.425 125.562 175.105 125.263 174.712C125.263 174.712 126.377 176.811 127.732 176.947L127.808 175.996Z" fill="#DE5840"/>
<path d="M130.327 170.679C130.327 170.679 131.342 174.212 129.35 175.19C127.357 176.167 126.115 168.872 126.115 168.872L130.327 170.679Z" fill="#313363"/>
<path d="M124.025 169.3C124.46 168.334 125.256 168.073 126.062 168.489C126.767 168.077 127.706 168.421 128.49 169.508C129.581 171.023 130.1 173.572 129.463 174.981C129.344 175.232 129.159 175.446 128.929 175.602C128.698 175.757 128.43 175.847 128.153 175.864C127.669 175.932 127.177 175.908 126.702 175.792C124.987 175.379 124.987 175.629 124.26 174.621C123.169 173.11 123.392 170.705 124.025 169.3Z" fill="#DE5840"/>
<path d="M125.142 169.747C124.691 171.398 124.941 175.049 124.9 175.557C124.9 175.557 121.559 175.758 121.661 171.955C121.794 167.224 124.669 169.353 124.669 169.353L125.142 169.747Z" fill="#24386B"/>
<path d="M124.063 170.493C125.812 169.58 127.259 168.853 130.289 170.963C130.463 170.542 129.793 169.254 129.153 168.872C127.842 168.08 127.176 167.649 125.812 167.474H125.487C123.517 167.436 122.548 168.277 122.302 170.198C122.279 170.364 122.014 171.148 122.014 171.288L122.62 171.023C122.646 172.137 122.93 170.44 124.063 170.493Z" fill="#24386B"/>
<path d="M128.331 174.743C128.691 174.599 128.971 174.015 128.956 173.436L127.646 173.951C127.676 174.53 127.971 174.887 128.331 174.743Z" fill="white"/>
<path d="M123.548 173.826C123.554 174.015 123.615 174.197 123.725 174.35C123.835 174.504 123.987 174.621 124.164 174.688C124.34 174.755 124.532 174.768 124.716 174.725C124.9 174.683 125.067 174.587 125.196 174.45C125.325 174.313 125.411 174.14 125.443 173.954C125.474 173.768 125.45 173.577 125.372 173.405C125.295 173.233 125.169 173.088 125.009 172.987C124.85 172.887 124.664 172.836 124.475 172.841C124.35 172.845 124.226 172.873 124.111 172.924C123.997 172.976 123.893 173.049 123.807 173.141C123.721 173.232 123.653 173.34 123.609 173.458C123.564 173.575 123.544 173.7 123.548 173.826Z" fill="#DE5840"/>
<path d="M114.114 205.062C114.568 204.229 116.874 199.79 116.818 197.169C116.78 195.453 117.287 189.677 116.64 187.321C117.939 189.972 118.889 192.624 119.961 194.646C121.264 197.163 121.638 200.058 121.018 202.823C120.018 207.584 122.76 211.061 126.229 212.232C118.632 211.705 113.595 206.02 114.114 205.062Z" fill="#5873BF"/>
<path d="M106.891 211.993C106.798 211.846 106.675 211.719 106.531 211.622C106.387 211.524 106.224 211.457 106.052 211.426C105.881 211.394 105.705 211.398 105.535 211.438C105.365 211.477 105.206 211.552 105.066 211.656L103.596 212.728C103.305 212.948 103.107 213.269 103.041 213.628C102.975 213.987 103.046 214.358 103.24 214.667C103.334 214.815 103.457 214.942 103.601 215.04C103.746 215.138 103.909 215.205 104.081 215.237C104.252 215.269 104.429 215.265 104.599 215.226C104.769 215.186 104.929 215.112 105.07 215.008L106.535 213.932C106.828 213.713 107.027 213.392 107.093 213.032C107.159 212.673 107.087 212.302 106.891 211.993Z" fill="#DE5840"/>
<path d="M110.304 208.736L106.857 213.58L104.956 212.777L107.986 205.157L110.304 208.736Z" fill="#DE5840"/>
<path d="M115.488 182.363C113.727 185.878 109.395 197.513 109.395 197.513L104.604 210.118L109.228 211.917L116.401 199.49L123.51 188.079L118.321 181.833C118.003 181.447 115.712 181.912 115.488 182.363Z" fill="#6F92F2"/>
<path d="M156.921 163.433C156.987 163.792 157.193 164.11 157.493 164.318C157.793 164.526 158.163 164.607 158.523 164.543L160.34 164.209C160.7 164.144 161.019 163.939 161.227 163.638C161.435 163.338 161.515 162.967 161.45 162.607C161.383 162.249 161.177 161.932 160.877 161.725C160.577 161.517 160.207 161.437 159.848 161.501L158.026 161.831C157.668 161.898 157.351 162.104 157.144 162.404C156.937 162.704 156.856 163.074 156.921 163.433Z" fill="#DE5840"/>
<path d="M152.645 165.713L157.36 162.198L158.909 163.535L153.735 169.785L152.645 165.713Z" fill="#DE5840"/>
<path d="M132.788 191.328C132.364 191.48 138.34 184.458 146.044 177.898C148.165 176.091 154.092 169.754 157.174 166.944L154.804 163.482L143.631 170.584L131.641 178.716L132.788 191.328Z" fill="#6F92F2"/>
</g>
<defs>
<clipPath id="clip0_133_268">
<rect width="264" height="254" fill="white" transform="translate(92 50)"/>
</clipPath>
</defs>
</svg>
