<svg width="443" height="318" viewBox="0 0 443 318" fill="none" xmlns="http://www.w3.org/2000/svg">
<path d="M0 9.99999C0 4.47714 4.47715 0 10 0H433C438.523 0 443 4.47715 443 10V318H0V9.99999Z" fill="#F2F7FF"/>
<g clip-path="url(#clip0_132_922)">
<path d="M363.054 199.028C398.998 130.421 341.825 42.7843 258.525 41.0272C233.417 40.4986 208.738 48.3199 190.698 72.6663C135.22 147.575 79.12 117.371 68.6258 162.919C58.1316 208.467 97.9146 262.843 202.429 205.065C254.857 176.085 313.333 279.784 350.896 220.043C355.459 212.797 359.512 205.792 363.054 199.028Z" fill="#EBEDFA"/>
<path d="M165.742 227.052C165.742 227.052 160.685 178.246 88.5757 184.124C88.5757 184.124 109.233 250.446 165.742 227.052Z" fill="#BBCAF2"/>
<path d="M185.248 232.133C185.248 232.133 201.141 161.799 105.76 135.964C105.76 135.964 101.87 238.042 185.248 232.133Z" fill="#9BB3F0"/>
<path d="M172.782 218.403C172.745 218.515 172.678 218.614 172.587 218.69C172.538 218.738 172.48 218.775 172.416 218.799C172.352 218.823 172.284 218.834 172.215 218.831C172.147 218.828 172.08 218.812 172.018 218.782C171.956 218.752 171.901 218.711 171.856 218.659L117.429 149.912C117.348 149.796 117.315 149.654 117.336 149.514C117.357 149.375 117.43 149.248 117.542 149.161C117.591 149.114 117.649 149.076 117.714 149.052C117.778 149.027 117.846 149.016 117.915 149.018C117.984 149.021 118.051 149.037 118.113 149.066C118.175 149.096 118.231 149.137 118.277 149.189L172.689 217.936C172.74 218.001 172.775 218.077 172.792 218.158C172.808 218.239 172.805 218.323 172.782 218.403Z" fill="#6986D1"/>
<path d="M131.82 166.242C131.786 166.356 131.719 166.457 131.628 166.533C131.537 166.609 131.425 166.657 131.307 166.67C131.24 166.678 131.173 166.671 131.109 166.65C131.045 166.63 130.986 166.595 130.937 166.549C130.888 166.503 130.85 166.447 130.825 166.384C130.8 166.322 130.79 166.255 130.793 166.188L131.229 149.146C131.236 149.001 131.295 148.863 131.394 148.757C131.493 148.651 131.626 148.584 131.77 148.567C131.836 148.56 131.904 148.567 131.967 148.589C132.03 148.611 132.088 148.646 132.137 148.692C132.185 148.738 132.223 148.794 132.248 148.857C132.272 148.919 132.283 148.986 132.279 149.052L131.844 166.095C131.844 166.145 131.836 166.195 131.82 166.242Z" fill="#6986D1"/>
<path d="M143.804 182.701C143.768 182.827 143.691 182.937 143.585 183.014C143.48 183.091 143.352 183.132 143.221 183.129C143.154 183.126 143.088 183.109 143.028 183.079C142.968 183.048 142.916 183.005 142.874 182.952C142.833 182.899 142.803 182.838 142.788 182.772C142.773 182.707 142.772 182.639 142.785 182.573L146.675 158.168C146.697 158.026 146.771 157.896 146.882 157.803C146.992 157.71 147.133 157.66 147.278 157.663C147.345 157.666 147.411 157.683 147.471 157.713C147.531 157.744 147.583 157.787 147.624 157.84C147.666 157.893 147.695 157.954 147.711 158.02C147.726 158.085 147.727 158.153 147.713 158.219L143.824 182.624C143.82 182.65 143.813 182.676 143.804 182.701Z" fill="#6986D1"/>
<path d="M131.82 166.242C131.783 166.365 131.708 166.472 131.606 166.55C131.504 166.627 131.381 166.67 131.253 166.674L112.831 166.398C112.764 166.397 112.698 166.382 112.638 166.353C112.577 166.324 112.523 166.283 112.48 166.232C112.437 166.18 112.405 166.121 112.387 166.056C112.369 165.991 112.366 165.924 112.376 165.857C112.396 165.714 112.466 165.582 112.575 165.486C112.683 165.389 112.822 165.335 112.967 165.333L131.389 165.609C131.456 165.609 131.522 165.624 131.583 165.652C131.644 165.681 131.698 165.722 131.741 165.773C131.784 165.825 131.815 165.885 131.832 165.95C131.849 166.015 131.852 166.083 131.84 166.149C131.835 166.181 131.829 166.212 131.82 166.242Z" fill="#6986D1"/>
<path d="M143.804 182.701C143.769 182.82 143.697 182.925 143.6 183.001C143.502 183.078 143.384 183.122 143.26 183.129L118.88 183.906C118.813 183.91 118.746 183.898 118.684 183.873C118.622 183.848 118.567 183.81 118.521 183.761C118.476 183.712 118.441 183.654 118.421 183.59C118.4 183.527 118.393 183.46 118.401 183.393C118.414 183.249 118.479 183.114 118.583 183.013C118.687 182.913 118.824 182.853 118.969 182.845L143.349 182.068C143.416 182.064 143.483 182.076 143.545 182.101C143.607 182.126 143.662 182.164 143.708 182.213C143.753 182.262 143.788 182.32 143.808 182.384C143.829 182.447 143.836 182.514 143.828 182.581C143.824 182.622 143.816 182.662 143.804 182.701Z" fill="#6986D1"/>
<path d="M156.978 200.109C156.942 200.227 156.871 200.331 156.773 200.408C156.676 200.484 156.557 200.529 156.434 200.536L132.054 201.314C131.987 201.317 131.92 201.306 131.858 201.281C131.796 201.256 131.74 201.217 131.694 201.169C131.648 201.12 131.614 201.062 131.592 200.998C131.571 200.935 131.564 200.867 131.571 200.801C131.585 200.656 131.65 200.521 131.754 200.42C131.858 200.319 131.994 200.258 132.139 200.249L156.519 199.471C156.587 199.468 156.654 199.479 156.716 199.505C156.779 199.53 156.835 199.569 156.881 199.618C156.927 199.667 156.961 199.726 156.982 199.79C157.003 199.854 157.01 199.922 157.002 199.988C156.998 200.029 156.99 200.069 156.978 200.109Z" fill="#6986D1"/>
<path d="M157.301 197.839C157.263 197.964 157.186 198.075 157.08 198.152C156.974 198.23 156.845 198.272 156.714 198.27C156.647 198.266 156.582 198.248 156.522 198.217C156.463 198.186 156.411 198.142 156.37 198.089C156.329 198.036 156.3 197.975 156.285 197.909C156.27 197.844 156.269 197.776 156.282 197.71L160.149 173.306C160.172 173.163 160.245 173.034 160.356 172.941C160.467 172.848 160.607 172.798 160.751 172.8C160.819 172.803 160.884 172.82 160.944 172.851C161.004 172.881 161.057 172.924 161.098 172.977C161.14 173.03 161.169 173.092 161.184 173.157C161.2 173.222 161.201 173.29 161.187 173.356L157.297 197.761C157.301 197.787 157.302 197.813 157.301 197.839Z" fill="#6986D1"/>
<path d="M251.446 298.723L270.968 295.94L331.973 246.734C332.502 246.307 332.905 245.743 333.137 245.104C333.369 244.465 333.422 243.775 333.29 243.108C333.157 242.441 332.845 241.823 332.387 241.32C331.929 240.818 331.341 240.45 330.689 240.257L302.186 231.802L251.446 298.723Z" fill="#E4E6F2"/>
<path d="M326.235 144.909C326.224 144.53 326.142 144.157 325.994 143.808C325.571 142.857 324.808 142.098 323.855 141.678C323.655 141.588 323.448 141.513 323.237 141.453L323.007 141.394L319.619 140.671L315.971 143.649C316.515 143.773 319.806 144.209 320.273 144.52C321.669 145.153 322.816 146.58 322.641 148.174L322.023 158.615C321.809 158.573 319.553 161.838 319.623 161.873L317.402 239.799C317.402 240.152 316.107 242.706 316.437 242.446L319.833 238.827C320.522 238.133 320.944 237.219 321.027 236.246L326.181 146.013C326.204 145.531 326.239 145.134 326.235 144.924V144.909Z" fill="#7B90C7"/>
<path d="M321.688 141.087L183.012 111.415L182.806 111.373C182.396 111.264 181.973 111.217 181.549 111.233C181.385 111.24 181.221 111.26 181.059 111.291C180.615 111.376 180.196 111.564 179.838 111.839L177.636 113.588C178.318 113.88 179.018 114.126 179.733 114.323L318.623 144.046L321.688 141.087Z" fill="#89A1DE"/>
<path d="M320.311 142.907L180.398 112.974C178.5 112.566 176.897 113.584 176.785 115.248L172.35 190.709C172.35 190.791 172.35 190.876 172.35 190.958L171.296 208.09C171.199 209.753 172.875 211.382 174.774 211.79L314.687 241.723C316.589 242.112 318.188 241.109 318.301 239.445L323.085 155.237C323.092 155.138 323.092 155.038 323.085 154.938L323.575 146.65C323.672 144.986 322.21 143.33 320.311 142.907Z" fill="#31497D"/>
<path d="M316.721 242.504L311.848 246.259L310.517 244.316L172.852 212.525C171.191 212.136 168.048 213.038 166.298 214.403L111.735 256.841L111.665 256.063L103.317 261.851L102.061 261.739L102.536 265.117C102.738 265.832 103.313 264.969 103.893 265.117L246.953 299.427C248.614 299.815 251.411 299.092 253.177 297.728L314.535 249.863C315.492 249.117 316.2 247.822 316.146 247.22L316.721 242.504Z" fill="#7B90C7"/>
<path d="M172.852 212.525C171.191 212.136 168.048 213.038 166.298 214.403L111.735 256.841L111.665 256.063L103.317 261.851L101.999 260.685L102.236 264.829C102.236 265.513 102.8 265.762 103.36 265.894L246.953 299.427C247.773 299.578 248.615 299.559 249.427 299.372L245.584 264.88C246.525 264.133 172.852 212.525 172.852 212.525Z" fill="#89A1DE"/>
<path d="M246.455 294.894L103.197 261.809C101.536 261.42 101.614 259.993 103.364 258.629L167.309 209.648C169.06 208.284 172.094 207.751 173.751 208.132L315.605 240.903C317.262 241.291 317.184 242.718 315.434 244.082L252.652 293.106C250.901 294.47 248.12 295.279 246.455 294.894Z" fill="#E1E7F5"/>
<path d="M182.533 221.754C182.256 221.915 181.929 221.966 181.615 221.897L173.097 219.981C172.79 219.911 172.708 219.732 172.903 219.592L178.426 215.499C178.702 215.336 179.031 215.284 179.344 215.355L187.862 217.271C188.169 217.341 188.251 217.516 188.057 217.66L182.533 221.754Z" fill="#B8C9F5"/>
<path d="M192.584 231.371C192.306 231.532 191.977 231.583 191.662 231.515L183.144 229.598C182.837 229.528 182.755 229.353 182.953 229.209L188.477 225.112C188.751 224.952 189.076 224.9 189.387 224.965L197.905 226.881C198.216 226.951 198.294 227.126 198.107 227.27L192.584 231.371Z" fill="#B8C9F5"/>
<path d="M187.753 237.637C187.476 237.798 187.148 237.849 186.835 237.781L178.317 235.861C178.014 235.795 177.928 235.62 178.119 235.472L183.646 231.371C183.923 231.215 184.248 231.165 184.56 231.231L193.082 233.147C193.389 233.217 193.471 233.396 193.28 233.536L187.753 237.637Z" fill="#B8C9F5"/>
<path d="M174.4 241.987C174.124 242.148 173.798 242.199 173.486 242.131L164.964 240.215C164.66 240.145 164.575 239.966 164.769 239.826L170.297 235.729C170.574 235.568 170.901 235.516 171.214 235.585L179.733 237.501C180.04 237.571 180.122 237.746 179.923 237.89L174.4 241.987Z" fill="#B8C9F5"/>
<path d="M151.14 245.035C150.863 245.196 150.535 245.247 150.222 245.179L141.704 243.262C141.397 243.192 141.315 243.017 141.505 242.874L147.993 238.061C148.271 237.903 148.599 237.853 148.911 237.921L157.43 239.837C157.737 239.907 157.819 240.086 157.628 240.226L151.14 245.035Z" fill="#B8C9F5"/>
<path d="M165.831 248.343C165.491 248.506 165.103 248.542 164.738 248.444L153.575 245.933C153.186 245.843 153.007 245.649 153.209 245.501L159.694 240.689C160.035 240.529 160.421 240.493 160.786 240.588L171.946 243.099C172.335 243.188 172.514 243.387 172.335 243.53L165.831 248.343Z" fill="#B8C9F5"/>
<path d="M239.174 264.895C238.91 265.031 238.606 265.067 238.318 264.996L229.804 263.08C229.493 263.01 229.376 262.851 229.539 262.73L231.939 260.95C232.206 260.815 232.513 260.78 232.803 260.852L241.317 262.769C241.624 262.839 241.737 262.998 241.574 263.119L239.174 264.895Z" fill="#B8C9F5"/>
<path d="M250.547 267.601C250.282 267.734 249.979 267.768 249.691 267.698L241.177 265.782C240.866 265.712 240.749 265.556 240.916 265.432L243.312 263.651C243.58 263.518 243.886 263.485 244.176 263.558L252.69 265.475C252.998 265.541 253.11 265.7 252.947 265.82L250.547 267.601Z" fill="#B8C9F5"/>
<path d="M262.613 270.186C262.35 270.316 262.049 270.348 261.765 270.275L253.251 268.359C252.943 268.289 252.819 268.137 252.978 268.017L255.289 266.303C255.554 266.174 255.855 266.144 256.141 266.217L264.655 268.133C264.962 268.2 265.083 268.355 264.923 268.472L262.613 270.186Z" fill="#B8C9F5"/>
<path d="M255.098 264.297C254.836 264.429 254.534 264.46 254.25 264.386L245.732 262.47C245.428 262.4 245.304 262.248 245.464 262.127L247.774 260.417C248.037 260.287 248.338 260.255 248.622 260.328L257.14 262.244C257.447 262.314 257.564 262.466 257.409 262.586L255.098 264.297Z" fill="#B8C9F5"/>
<path d="M224.436 261.529C224.157 261.689 223.828 261.739 223.514 261.669L168.072 249.19C167.768 249.124 167.683 248.946 167.873 248.802L174.361 243.993C174.639 243.834 174.966 243.783 175.279 243.849L230.722 256.328C231.029 256.398 231.111 256.576 230.924 256.716L224.436 261.529Z" fill="#B8C9F5"/>
<path d="M164.287 246.982C164.258 246.992 164.226 246.992 164.198 246.982L157.686 245.517C157.651 245.517 157.632 245.517 157.644 245.486L158.032 245.187C158.062 245.178 158.093 245.178 158.122 245.187L164.633 246.652C164.672 246.652 164.691 246.675 164.676 246.683L164.287 246.982Z" fill="#B8C9F5"/>
<path d="M147.573 242.632C147.557 242.636 147.539 242.636 147.523 242.632L144.761 242.007C144.761 242.007 144.761 242.007 144.761 241.983L145.15 241.688C145.158 241.684 145.167 241.682 145.175 241.682C145.184 241.682 145.193 241.684 145.201 241.688L147.966 242.31C147.966 242.31 147.966 242.31 147.966 242.333L147.573 242.632Z" fill="#B8C9F5"/>
<path d="M186.081 244.611C185.802 244.773 185.473 244.824 185.159 244.755L176.641 242.839C176.337 242.769 176.252 242.59 176.442 242.45L181.969 238.353C182.249 238.195 182.577 238.145 182.891 238.213L191.41 240.129C191.717 240.199 191.798 240.374 191.604 240.518L186.081 244.611Z" fill="#B8C9F5"/>
<path d="M197.808 247.251C197.532 247.412 197.206 247.463 196.894 247.394L188.375 245.478C188.072 245.408 187.987 245.229 188.177 245.089L193.704 240.992C193.982 240.831 194.309 240.78 194.622 240.848L203.14 242.765C203.444 242.835 203.529 243.013 203.335 243.153L197.808 247.251Z" fill="#B8C9F5"/>
<path d="M209.539 249.894C209.262 250.052 208.936 250.102 208.625 250.034L200.107 248.118C199.799 248.048 199.718 247.873 199.912 247.729L205.435 243.632C205.713 243.471 206.04 243.419 206.353 243.488L214.876 245.404C215.179 245.474 215.264 245.653 215.066 245.793L209.539 249.894Z" fill="#B8C9F5"/>
<path d="M221.282 252.534C221.004 252.693 220.677 252.744 220.364 252.677L211.845 250.757C211.534 250.687 211.456 250.512 211.647 250.368L217.17 246.271C217.449 246.11 217.778 246.059 218.092 246.127L226.614 248.048C226.918 248.114 227.003 248.292 226.805 248.436L221.282 252.534Z" fill="#B8C9F5"/>
<path d="M233.005 255.173C232.726 255.333 232.397 255.383 232.083 255.313L223.565 253.397C223.262 253.33 223.176 253.152 223.37 253.008L228.898 248.911C229.176 248.753 229.502 248.702 229.816 248.767L238.33 250.683C238.637 250.753 238.719 250.932 238.528 251.072L233.005 255.173Z" fill="#B8C9F5"/>
<path d="M244.736 257.809C244.459 257.97 244.131 258.021 243.818 257.953L235.3 256.036C234.997 255.966 234.911 255.787 235.106 255.647L240.629 251.546C240.909 251.388 241.237 251.338 241.551 251.406L250.069 253.323C250.372 253.393 250.458 253.568 250.263 253.711L244.736 257.809Z" fill="#B8C9F5"/>
<path d="M271.158 263.756C270.882 263.916 270.556 263.967 270.244 263.9L247.031 258.676C246.724 258.606 246.642 258.427 246.836 258.287L252.36 254.19C252.638 254.028 252.967 253.977 253.282 254.046L276.491 259.27C276.798 259.336 276.88 259.515 276.685 259.659L271.158 263.756Z" fill="#B8C9F5"/>
<path d="M199.426 240.261C199.152 240.422 198.826 240.474 198.516 240.405L189.994 238.485C189.686 238.419 189.605 238.244 189.799 238.096L195.326 233.995C195.602 233.837 195.926 233.787 196.236 233.855L204.759 235.771C205.066 235.841 205.148 236.016 204.953 236.16L199.426 240.261Z" fill="#B8C9F5"/>
<path d="M211.169 242.901C210.894 243.063 210.567 243.115 210.255 243.045L201.729 241.124C201.429 241.058 201.34 240.883 201.538 240.735L207.057 236.627C207.332 236.467 207.657 236.416 207.968 236.483L216.49 238.403C216.793 238.469 216.879 238.648 216.688 238.792L211.169 242.901Z" fill="#B8C9F5"/>
<path d="M222.892 245.544C222.614 245.704 222.287 245.754 221.974 245.684L213.456 243.768C213.156 243.698 213.067 243.523 213.257 243.379L218.785 239.282C219.062 239.122 219.389 239.071 219.703 239.138L228.221 241.058C228.524 241.124 228.61 241.303 228.419 241.447L222.892 245.544Z" fill="#B8C9F5"/>
<path d="M234.623 248.184C234.345 248.343 234.018 248.393 233.705 248.324L225.187 246.407C224.88 246.337 224.798 246.162 224.992 246.018L230.52 241.921C230.796 241.763 231.122 241.713 231.434 241.781L239.952 243.698C240.255 243.768 240.341 243.943 240.146 244.086L234.623 248.184Z" fill="#B8C9F5"/>
<path d="M246.358 250.819C246.081 250.978 245.756 251.029 245.444 250.963L236.918 249.043C236.611 248.973 236.529 248.802 236.723 248.654L242.251 244.557C242.527 244.398 242.853 244.348 243.165 244.417L251.687 246.333C251.99 246.403 252.076 246.578 251.885 246.722L246.358 250.819Z" fill="#B8C9F5"/>
<path d="M258.085 253.459C257.809 253.617 257.483 253.669 257.171 253.603L248.653 251.686C248.346 251.616 248.264 251.441 248.454 251.297L253.982 247.2C254.26 247.041 254.587 246.991 254.9 247.06L263.414 248.977C263.721 249.047 263.803 249.222 263.612 249.365L258.085 253.459Z" fill="#B8C9F5"/>
<path d="M269.816 256.098C269.54 256.257 269.214 256.308 268.902 256.242L260.38 254.322C260.073 254.256 259.991 254.081 260.186 253.933L265.713 249.844C265.988 249.686 266.313 249.636 266.623 249.704L275.145 251.62C275.452 251.69 275.534 251.869 275.343 252.009L269.816 256.098Z" fill="#B8C9F5"/>
<path d="M204.261 233.995C203.982 234.156 203.653 234.207 203.339 234.139L194.82 232.222C194.517 232.152 194.432 231.977 194.634 231.833L200.157 227.736C200.433 227.579 200.757 227.529 201.067 227.596L209.589 229.513C209.897 229.583 209.978 229.758 209.788 229.901L204.261 233.995Z" fill="#B8C9F5"/>
<path d="M215.988 236.627C215.712 236.787 215.386 236.838 215.074 236.77L206.552 234.854C206.244 234.784 206.163 234.609 206.361 234.465L211.884 230.368C212.163 230.21 212.49 230.16 212.802 230.228L221.321 232.144C221.624 232.214 221.71 232.389 221.515 232.533L215.988 236.627Z" fill="#B8C9F5"/>
<path d="M227.723 239.274C227.444 239.435 227.116 239.486 226.801 239.418L218.283 237.501C217.976 237.431 217.894 237.256 218.092 237.112L223.616 233.007C223.891 232.85 224.215 232.8 224.526 232.868L233.044 234.784C233.355 234.854 233.433 235.029 233.242 235.173L227.723 239.274Z" fill="#B8C9F5"/>
<path d="M239.45 241.913C239.173 242.076 238.845 242.127 238.532 242.057L230.014 240.141C229.707 240.071 229.625 239.896 229.819 239.752L235.347 235.655C235.623 235.496 235.949 235.446 236.261 235.515L244.783 237.431C245.09 237.501 245.172 237.68 244.977 237.82L239.45 241.913Z" fill="#B8C9F5"/>
<path d="M251.185 244.549C250.91 244.711 250.584 244.763 250.271 244.697L241.749 242.776C241.442 242.71 241.36 242.531 241.558 242.388L247.082 238.29C247.358 238.131 247.684 238.08 247.996 238.147L256.518 240.067C256.821 240.133 256.907 240.312 256.708 240.456L251.185 244.549Z" fill="#B8C9F5"/>
<path d="M262.92 247.192C262.64 247.354 262.31 247.405 261.994 247.336L253.476 245.416C253.176 245.35 253.087 245.171 253.285 245.027L258.813 240.93C259.088 240.771 259.412 240.72 259.723 240.786L268.245 242.706C268.552 242.776 268.634 242.951 268.443 243.095L262.92 247.192Z" fill="#B8C9F5"/>
<path d="M274.647 249.844C274.37 250.004 274.043 250.055 273.729 249.987L265.207 248.071C264.904 248.001 264.818 247.826 265.017 247.682L270.544 243.585C270.82 243.426 271.146 243.377 271.458 243.445L279.976 245.361C280.283 245.431 280.365 245.606 280.175 245.75L274.647 249.844Z" fill="#B8C9F5"/>
<path d="M180.853 228.731C180.574 228.892 180.246 228.943 179.931 228.875L165.485 225.621C165.178 225.555 165.096 225.377 165.294 225.233L170.818 221.135C171.095 220.976 171.422 220.925 171.736 220.992L186.182 224.245C186.489 224.315 186.571 224.49 186.38 224.634L180.853 228.731Z" fill="#B8C9F5"/>
<path d="M293.987 246.831C293.709 246.991 293.381 247.041 293.069 246.971L278.623 243.721C278.319 243.651 278.234 243.476 278.428 243.332L283.951 239.235C284.229 239.076 284.556 239.025 284.869 239.091L299.315 242.341C299.623 242.411 299.704 242.59 299.51 242.73L293.987 246.831Z" fill="#B8C9F5"/>
<path d="M176.018 234.998C175.742 235.158 175.416 235.208 175.104 235.138L157.881 231.25C157.574 231.184 157.492 231.009 157.682 230.862L163.21 226.764C163.488 226.606 163.815 226.556 164.128 226.624L181.347 230.512C181.658 230.582 181.736 230.757 181.545 230.9L176.018 234.998Z" fill="#B8C9F5"/>
<path d="M162.673 239.348C162.396 239.509 162.068 239.56 161.755 239.492L150.273 236.906C149.965 236.836 149.884 236.662 150.074 236.518L155.601 232.42C155.879 232.259 156.206 232.208 156.519 232.277L168.002 234.862C168.309 234.932 168.391 235.107 168.196 235.25L162.673 239.348Z" fill="#B8C9F5"/>
<path d="M194.264 224.393C193.986 224.554 193.657 224.605 193.342 224.537L184.828 222.632C184.521 222.562 184.439 222.387 184.634 222.243L190.157 218.146C190.434 217.985 190.762 217.934 191.075 218.002L199.589 219.919C199.9 219.989 199.978 220.164 199.788 220.308L194.264 224.393Z" fill="#B8C9F5"/>
<path d="M205.941 227.017C205.664 227.178 205.336 227.23 205.023 227.161L196.505 225.244C196.198 225.174 196.116 224.996 196.307 224.856L201.834 220.755C202.11 220.591 202.438 220.54 202.752 220.611L211.27 222.527C211.577 222.597 211.659 222.772 211.464 222.916L205.941 227.017Z" fill="#B8C9F5"/>
<path d="M217.668 229.657C217.393 229.818 217.066 229.869 216.754 229.8L208.232 227.884C207.929 227.814 207.843 227.639 208.042 227.495L213.565 223.398C213.842 223.237 214.17 223.185 214.483 223.254L223.001 225.171C223.308 225.241 223.39 225.415 223.192 225.559L217.668 229.657Z" fill="#B8C9F5"/>
<path d="M229.403 232.3C229.126 232.46 228.798 232.51 228.485 232.44L219.971 230.523C219.66 230.453 219.582 230.278 219.773 230.135L225.296 226.037C225.575 225.878 225.904 225.828 226.218 225.897L234.732 227.81C235.039 227.88 235.121 228.059 234.927 228.199L229.403 232.3Z" fill="#B8C9F5"/>
<path d="M241.119 234.939C240.843 235.099 240.517 235.15 240.205 235.083L231.686 233.163C231.379 233.097 231.298 232.918 231.492 232.774L237.015 228.677C237.293 228.517 237.621 228.467 237.933 228.537L246.451 230.453C246.759 230.523 246.84 230.698 246.642 230.842L241.119 234.939Z" fill="#B8C9F5"/>
<path d="M252.869 237.575C252.591 237.734 252.265 237.785 251.951 237.719L243.429 235.799C243.126 235.732 243.04 235.554 243.239 235.41L248.762 231.316C249.039 231.158 249.365 231.11 249.676 231.184L258.198 233.101C258.501 233.171 258.587 233.346 258.393 233.489L252.869 237.575Z" fill="#B8C9F5"/>
<path d="M264.601 240.215C264.322 240.375 263.993 240.427 263.679 240.358L255.16 238.442C254.853 238.372 254.771 238.193 254.962 238.053L260.489 233.956C260.767 233.796 261.094 233.746 261.407 233.816L269.929 235.732C270.237 235.802 270.318 235.977 270.124 236.121L264.601 240.215Z" fill="#B8C9F5"/>
<path d="M276.328 242.846C276.052 243.007 275.726 243.058 275.414 242.99L266.888 241.074C266.584 241.004 266.499 240.829 266.697 240.685L272.22 236.588C272.496 236.427 272.822 236.376 273.134 236.444L281.66 238.36C281.964 238.43 282.049 238.605 281.851 238.749L276.328 242.846Z" fill="#B8C9F5"/>
<path d="M283.185 246.065C283.02 246.035 282.852 246.035 282.687 246.065C282.54 246.084 282.399 246.136 282.275 246.217L276.748 250.314C276.658 250.384 276.615 250.465 276.654 250.543C276.688 250.589 276.73 250.627 276.779 250.656C276.828 250.685 276.882 250.703 276.938 250.71L279.163 251.212L271.917 256.584C271.823 256.654 271.784 256.736 271.823 256.81C271.857 256.856 271.9 256.894 271.95 256.923C271.999 256.952 272.054 256.97 272.111 256.977L277.852 258.267C278.017 258.297 278.185 258.297 278.35 258.267C278.5 258.251 278.644 258.199 278.77 258.116L291.905 248.374C291.999 248.304 292.034 248.226 291.995 248.149C291.962 248.101 291.92 248.062 291.87 248.033C291.82 248.004 291.764 247.986 291.707 247.981L283.185 246.065Z" fill="#B8C9F5"/>
<path d="M161.113 237.466C161.084 237.474 161.053 237.474 161.024 237.466L154.512 236.001C154.474 236.001 154.454 235.977 154.466 235.97L154.855 235.67C154.884 235.662 154.915 235.662 154.944 235.67L161.455 237.136C161.49 237.136 161.51 237.159 161.498 237.167L161.113 237.466Z" fill="#B8C9F5"/>
<path d="M195.96 274.843L164.734 268.005C164.373 267.924 164.377 267.644 164.734 267.375L177.718 257.828C178.099 257.557 178.568 257.436 179.033 257.49L210.259 264.324C210.62 264.406 210.62 264.689 210.259 264.954L197.279 274.501C196.897 274.773 196.427 274.895 195.96 274.843Z" fill="#B8C9F5"/>
<path d="M316.465 149.573L183.883 120.904C182.086 120.516 180.546 121.332 180.445 122.731L179.795 131.637C179.766 131.747 179.746 131.859 179.737 131.972L175.773 195.829C175.672 197.228 177.792 199.848 179.593 200.237L310.813 230.1C312.61 230.488 314.154 229.672 314.255 228.269L314.862 216.607C314.892 216.497 314.911 216.385 314.921 216.272L319.549 152.792C319.643 151.408 318.266 149.962 316.465 149.573Z" fill="#C2CDF5"/>
<path d="M266.977 284.573C266.902 284.577 266.828 284.562 266.76 284.531C266.693 284.5 266.634 284.453 266.588 284.394C266.549 284.345 266.52 284.289 266.503 284.229C266.485 284.169 266.48 284.106 266.488 284.044C266.495 283.982 266.514 283.921 266.545 283.867C266.575 283.812 266.617 283.764 266.666 283.726L272.399 279.193C272.5 279.116 272.626 279.082 272.752 279.097C272.878 279.112 272.993 279.176 273.072 279.275C273.111 279.324 273.139 279.38 273.156 279.44C273.173 279.501 273.178 279.564 273.171 279.626C273.163 279.688 273.143 279.748 273.112 279.803C273.081 279.857 273.04 279.905 272.99 279.943L267.257 284.472C267.177 284.536 267.079 284.571 266.977 284.573Z" fill="#372D4F"/>
<path d="M259.812 290.342C259.713 290.342 259.616 290.311 259.536 290.254C259.455 290.197 259.393 290.116 259.361 290.022C259.328 289.929 259.325 289.827 259.352 289.732C259.379 289.637 259.435 289.553 259.513 289.491L265.234 284.962C265.334 284.884 265.461 284.848 265.587 284.863C265.713 284.877 265.828 284.941 265.907 285.04C265.946 285.089 265.975 285.145 265.992 285.205C266.009 285.266 266.014 285.329 266.006 285.391C265.998 285.453 265.979 285.513 265.948 285.568C265.917 285.622 265.875 285.67 265.826 285.708L260.092 290.237C260.012 290.3 259.914 290.337 259.812 290.342Z" fill="#372D4F"/>
<path d="M156.448 90.7375C158.686 89.8036 159.742 87.2334 158.808 84.9966C157.874 82.7598 155.302 81.7036 153.064 82.6374C150.826 83.5712 149.769 86.1415 150.703 88.3783C151.638 90.615 154.209 91.6713 156.448 90.7375Z" stroke="#272B47" stroke-width="2.2" stroke-linecap="round" stroke-linejoin="round"/>
<path d="M368.681 224.366C369.235 222.006 367.771 219.644 365.41 219.09C363.049 218.535 360.685 219.999 360.131 222.358C359.576 224.718 361.04 227.08 363.401 227.635C365.762 228.189 368.126 226.725 368.681 224.366Z" stroke="#272B47" stroke-width="2.2" stroke-linecap="round" stroke-linejoin="round"/>
<path d="M321.615 88.6899C322.17 86.3303 320.706 83.968 318.345 83.4137C315.984 82.8594 313.62 84.3229 313.065 86.6826C312.511 89.0422 313.975 91.4044 316.336 91.9588C318.697 92.5131 321.061 91.0496 321.615 88.6899Z" stroke="#272B47" stroke-width="2.2" stroke-linecap="round" stroke-linejoin="round"/>
<path d="M258.474 99.5394C258.38 100.494 258.458 101.458 258.704 102.385C259.719 106.249 263.321 108.632 266.748 107.707C269.307 107.019 271.026 104.679 271.337 101.93C271.432 100.976 271.354 100.012 271.108 99.0846C270.093 95.2206 266.495 92.8338 263.064 93.759C260.505 94.447 258.766 96.7911 258.474 99.5394ZM269.179 99.5628C269.859 102.16 268.545 104.772 266.238 105.394C263.932 106.016 261.512 104.41 260.828 101.81C260.143 99.209 261.462 96.6006 263.768 95.9786C266.075 95.3567 268.494 96.9621 269.179 99.5628Z" fill="#C5CBEB"/>
<path d="M271.983 118.109C271.889 119.064 271.966 120.028 272.212 120.955C273.228 124.819 276.829 127.202 280.256 126.28C282.816 125.589 284.554 123.248 284.846 120.5C284.942 119.546 284.865 118.582 284.62 117.654C283.605 113.79 280.003 111.404 276.577 112.329C274.013 113.009 272.279 115.361 271.983 118.109ZM282.687 118.133C283.372 120.729 282.053 123.342 279.747 123.964C277.44 124.586 275.021 122.98 274.336 120.383C273.652 117.787 274.97 115.17 277.277 114.552C279.583 113.934 282.003 115.532 282.687 118.133Z" fill="#C5CBEB"/>
<path d="M281.96 101.899L261.388 121.363C261.248 121.489 261.082 121.584 260.903 121.642C260.723 121.699 260.533 121.718 260.346 121.696C260.158 121.674 259.978 121.613 259.816 121.516C259.654 121.419 259.515 121.289 259.408 121.134C259.157 120.818 259.028 120.422 259.046 120.019C259.064 119.616 259.227 119.233 259.505 118.941L280.077 99.4812C280.217 99.3545 280.383 99.2591 280.563 99.2013C280.742 99.1436 280.933 99.1247 281.12 99.146C281.308 99.1674 281.489 99.2284 281.651 99.325C281.813 99.4217 281.953 99.5518 282.061 99.7066C282.312 100.023 282.44 100.419 282.421 100.822C282.402 101.225 282.239 101.607 281.96 101.899Z" fill="#C5CBEB"/>
<path d="M188.728 163.322C196.324 157.773 197.262 146.139 190.824 137.338C184.386 128.537 173.01 125.902 165.414 131.452C157.818 137.001 156.88 148.635 163.318 157.436C169.756 166.237 181.132 168.872 188.728 163.322Z" fill="#F9A066"/>
<path d="M192.961 140.221C194.498 143.119 195.343 146.333 195.431 149.612C195.653 159.941 187.765 167.323 177.811 166.095C174.99 165.733 172.282 164.759 169.876 163.241" stroke="#2D4973" stroke-width="1.72" stroke-linecap="round" stroke-linejoin="round"/>
<path d="M175.621 156.302C173.683 155.678 171.962 154.519 170.654 152.959L171.864 151.428C173.097 152.812 174.587 154.028 176.399 154.382C178.605 154.81 179.768 153.764 179.853 151.863C180.075 146.895 171.685 146.355 171.969 140.372C172.09 137.651 173.914 136.014 176.52 136.119L176.66 133.009L178.449 133.355L178.313 136.391C180.215 136.975 181.425 138.172 182.448 139.544L181.067 140.792C180.013 139.474 179.122 138.65 177.504 138.339C175.684 137.985 174.47 138.926 174.392 140.706C174.194 145.154 182.56 145.538 182.28 152.135C182.152 155.051 180.269 156.726 177.418 156.578L177.278 159.688L175.489 159.338L175.621 156.302Z" fill="white"/>
<g style="mix-blend-mode:multiply" opacity="0.21">
<path d="M226.529 285.774L250.679 280.565L302.509 241.89L276.514 236.106L226.529 285.774Z" fill="#36518A"/>
</g>
<path d="M139.643 209.267L152.381 204.261L147.111 200.054L139.643 209.267Z" fill="#395591"/>
<path d="M144.578 263.799L143.213 202.795L169.861 183.856L183.689 176.688L224.3 196.622L226.474 283.531L210.784 279.745V279.776L144.578 263.799Z" fill="#C6D4F7"/>
<path d="M224.016 196.641L236.366 187.397L236.358 187.168L237.412 186.612L279.984 187.405L281.653 244.537L248.217 267.325L248.213 267.247L226.467 283.527L224.016 196.641Z" fill="#A0B1E0"/>
<path d="M231.134 144.932L283.17 188.303L225.805 224.992L175.034 179.452L231.134 144.932Z" fill="#5879D6"/>
<path d="M283.169 188.303L283.333 193.162L225.848 230.302L225.786 224.996L283.169 188.303Z" fill="#445EA6"/>
<path d="M225.848 230.302L171.557 181.609L174.96 179.452L225.805 224.992L225.848 230.302Z" fill="#8497D9"/>
<path d="M177.625 183.02L139.643 209.267L138.783 204.925L174.743 179.455L177.625 183.02Z" fill="#8497D9"/>
<path d="M226.529 285.778L226.408 280.907L144.5 262.489L144.59 266.038L226.529 285.778Z" fill="#38548F"/>
<path d="M226.529 285.774L226.393 280.903L281.501 240.071L281.652 244.537L226.529 285.774Z" fill="#2E4575"/>
<path d="M169.554 272.114L192.183 277.576L191.285 228.133L168.313 222.632L169.554 272.114Z" fill="white"/>
<path d="M172.237 269.65L189.06 273.72L187.994 230.504L171.121 226.461L172.237 269.65Z" fill="#5E78C9"/>
<path d="M174.684 253.365C174.493 253.312 174.324 253.197 174.205 253.038C174.085 252.879 174.021 252.686 174.023 252.487L173.937 249.105C173.937 248.685 174.206 248.39 174.56 248.448C174.751 248.501 174.919 248.615 175.038 248.773C175.158 248.932 175.222 249.125 175.221 249.323L175.306 252.705C175.318 253.128 175.038 253.424 174.684 253.365Z" fill="#2E4575"/>
<path d="M251.026 248.491L250.376 225.124L263.515 215.732L264.161 239.099L251.026 248.491Z" fill="white"/>
<path d="M252.554 244.475L252.068 226.838L261.983 219.748L262.473 237.385L252.554 244.475Z" fill="#4C61A3"/>
<path d="M212.9 256.553L212.273 233.245L197.913 229.657L198.539 252.965L212.9 256.553Z" fill="white"/>
<path d="M211.064 253.257L210.593 235.659L199.749 232.953L200.219 250.551L211.064 253.257Z" fill="#5E78C9"/>
<path d="M163.497 244.91L162.871 221.598L148.511 218.01L149.133 241.322L163.497 244.91Z" fill="white"/>
<path d="M161.662 241.614L161.187 224.016L150.347 221.307L150.817 238.905L161.662 241.614Z" fill="#5E78C9"/>
<path d="M316.568 236.391L302.492 236.883L302.828 246.506L316.904 246.014L316.568 236.391Z" fill="#1B2D54"/>
<path d="M268.089 198.258C267.724 199.036 267.945 199.907 268.583 200.179L271.224 200.603C271.866 200.875 272.835 199.219 271.738 198.433L269.914 197.707C269.676 197.609 269.423 197.551 269.167 197.535C268.684 197.512 268.381 197.644 268.089 198.258Z" fill="#DE5840"/>
<path d="M299.716 197.835L282.267 203.895L272.399 198.243L270.878 199.759C270.306 200.33 270.314 201.314 270.901 202.091L279.937 210.387C281.691 212.696 284.484 212.688 286.903 212.012L300.751 207.685L299.716 197.835Z" fill="#F9A066"/>
<path d="M291.295 292.713C296.133 290.198 304.586 289.735 310.175 291.683C311.022 291.966 311.833 292.344 312.594 292.81C316.037 291.706 320.763 291.644 324.08 292.81C328.005 294.179 328.433 296.721 325.033 298.49C321.766 300.189 316.157 300.55 312.24 299.361C312.017 299.5 311.78 299.63 311.529 299.749C306.69 302.264 298.238 302.727 292.652 300.779C287.067 298.832 286.468 295.232 291.295 292.713Z" fill="#DEE0EC"/>
<path d="M312.085 295.905L315.621 291.683C315.956 291.28 316.378 290.958 316.854 290.74C317.331 290.522 317.85 290.414 318.374 290.424C318.766 290.428 319.157 290.47 319.541 290.548C319.762 290.582 319.966 290.691 320.117 290.855C320.269 291.02 320.361 291.231 320.378 291.454L320.553 292.348C320.798 293.844 321.019 294.342 320.101 294.793L314.656 297.487C313.547 298.323 310.257 297.763 312.085 295.905Z" fill="#1B2D54"/>
<path d="M319.65 290.532C319.65 291.017 319.465 291.484 319.133 291.837C318.8 292.19 318.345 292.404 317.861 292.433C317.371 292.433 316.994 292.192 316.788 291.298C315.395 281.152 313.116 272.822 311.809 263.336C310.339 252.689 311.105 255.791 308.88 239.464L318.398 236.354C318.083 248.343 319.339 263.274 319.339 263.274C323.579 273.848 319.996 277.56 319.65 290.532Z" fill="#DE5840"/>
<path d="M322.587 228.751L320.078 257.956C320.078 260.678 319.475 262.143 320.522 265.276C321.809 269.136 322.536 277.078 320.79 288.911C319.401 290.303 317.768 290.466 315.916 289.553C315.916 289.553 310.7 264.227 310 259.309C309.3 254.392 306.597 227.787 306.597 227.787L322.587 228.751Z" fill="#1B2D54"/>
<path d="M292.956 295.423L297.005 291.388C297.38 291.004 297.833 290.707 298.334 290.516C298.835 290.324 299.372 290.244 299.907 290.28C300.289 290.305 300.668 290.368 301.038 290.466C301.253 290.514 301.443 290.637 301.575 290.814C301.706 290.99 301.77 291.207 301.754 291.426L301.816 292.332C301.871 293.848 302.026 294.361 301.038 294.766L295.286 297.156C294.103 297.934 290.906 297.184 292.956 295.423Z" fill="#1B2D54"/>
<path d="M301.167 290.458C301.102 290.952 300.862 291.405 300.491 291.737C300.12 292.069 299.642 292.256 299.144 292.266C298.654 292.243 298.308 291.975 298.219 291.065C298.11 280.798 296.892 272.305 296.787 262.707C296.667 251.931 297.04 255.088 296.884 238.566L306.756 235.966C304.932 247.989 304.298 263.053 304.298 263.053C307.184 273.945 303.147 277.444 301.167 290.458Z" fill="#DE5840"/>
<path d="M311.887 228.591L305.686 257.774C305.34 260.495 304.558 261.941 305.204 265.16C305.982 269.109 305.721 277.125 302.481 288.907C300.926 290.225 299.276 290.283 297.545 289.273C297.545 289.273 295.546 263.542 295.472 258.563C295.398 253.583 296.056 226.718 296.056 226.718L311.887 228.591Z" fill="#1B2D54"/>
<path d="M302.186 197.112C303.532 197.053 304.761 196.84 305.115 196.583C307.11 195.145 309.565 196.015 309.829 196.194L316.694 198.138C325.349 200.171 324.186 206.084 324.516 209.8C324.516 209.8 321.198 214.675 321.179 218.181C321.179 221.217 319.662 228.082 320.195 229.066C320.584 229.789 320.794 234.31 317.138 235.581C313.905 236.7 308.752 239.857 305.947 239.876C291.19 239.95 294.936 232.133 295.006 227.114C295.048 223.954 295.395 214.628 295.274 212.128C295.153 209.629 293.823 203.51 297.608 199.429C298.148 198.919 299.852 197.294 302.186 197.112Z" fill="#F9A066"/>
<path d="M308.382 199.121L308.063 198.865C307.246 199.137 306.507 199.114 306.348 198.402L305.391 194.383C305.22 193.668 305.753 192.863 306.558 192.591L306.799 192.509C307.616 192.241 309.911 192.12 310.066 192.812L310.7 197.088C310.879 197.808 309.187 198.849 308.382 199.121Z" fill="#DE5840"/>
<path d="M305.908 196.532C306.501 196.4 307.056 196.137 307.535 195.764C308.014 195.391 308.404 194.917 308.678 194.375C308.678 194.375 307.732 197.123 306.149 197.621L305.908 196.532Z" fill="#BA422D"/>
<path d="M309.86 187.895C309.277 186.768 308.304 186.523 307.343 187.117C306.464 186.682 305.344 187.187 304.453 188.571C303.213 190.515 302.478 193.625 303.326 195.273C303.537 195.611 303.821 195.896 304.158 196.109C304.494 196.322 304.875 196.456 305.27 196.501C305.854 196.544 307.402 196.152 307.993 195.969C310.051 195.316 309.522 195.701 310.327 194.414C311.575 192.474 310.708 189.543 309.86 187.895Z" fill="#DE5840"/>
<path d="M309.638 188.812C310.276 190.756 309.638 193.99 309.72 194.585C309.72 194.585 312.944 192.618 312.871 190.9C312.637 185.17 309.078 188.023 309.078 188.023L309.638 188.812Z" fill="#1B2D54"/>
<path d="M309.864 185.943C311.031 186.297 311.704 187.234 311.984 188.816C312.019 189.018 312.373 189.943 312.373 190.111L311.626 189.846C311.673 191.203 311.42 189.524 310.047 189.691C307.993 188.797 306.301 187.067 303.648 190.138C303.411 190.41 302.656 189.885 302.991 189.244C303.462 188.384 304.114 187.635 304.901 187.05C305.689 186.465 306.594 186.057 307.553 185.854L307.942 185.815C308.578 185.735 309.222 185.779 309.841 185.943" fill="#1B2D54"/>
<path d="M304.769 194.943C304.525 194.841 304.329 194.653 304.217 194.414C304.106 194.175 304.087 193.903 304.166 193.652L305.834 194.107C305.706 194.694 305.228 195.067 304.769 194.943Z" fill="white"/>
<path d="M311.404 193.497C311.408 193.807 311.291 194.106 311.079 194.332C310.866 194.558 310.574 194.693 310.265 194.709C310.115 194.716 309.965 194.693 309.825 194.64C309.684 194.588 309.555 194.508 309.447 194.405C309.338 194.302 309.251 194.178 309.191 194.041C309.131 193.903 309.099 193.755 309.098 193.605C309.094 193.295 309.211 192.996 309.423 192.77C309.636 192.544 309.927 192.409 310.237 192.393C310.387 192.386 310.536 192.41 310.677 192.463C310.817 192.515 310.945 192.595 311.054 192.698C311.163 192.801 311.25 192.925 311.31 193.062C311.37 193.199 311.402 193.347 311.404 193.497Z" fill="#DE5840"/>
<path d="M305.881 196.431C305.439 196.537 304.975 196.501 304.555 196.33C304.555 196.33 304.282 199.44 305.29 200.198L307.017 198.947C307.017 198.947 305.893 197.64 305.881 196.431Z" fill="white"/>
<path d="M307.094 198.919L308.366 200.665C308.366 200.665 312.559 199.16 312.618 197.05L310.708 196.315C310.708 196.315 308.748 198.974 307.094 198.919Z" fill="white"/>
<path d="M323.022 231.725C322.719 230.022 322.307 221.229 322.322 218.189C322.322 216.202 322.322 210.414 322.47 207.475C321.14 210.305 320.136 211.394 320.027 212.082C319.063 217.505 318.907 220.455 316.449 223.643C311.731 229.761 310.568 233.625 305.927 239.865C317.25 239.445 319.316 238.768 321.412 237.451C324.01 235.818 323.19 232.599 323.022 231.725Z" fill="#E6935E"/>
<path d="M295.165 207.681L295.671 212.568" stroke="#C77B4A" stroke-width="1.73" stroke-linecap="round" stroke-linejoin="round"/>
<path d="M339.275 224.328L315.991 216.245L310.336 232.516L333.619 240.599L339.275 224.328Z" fill="white"/>
<path d="M319.11 233.839C319.814 234.341 320.732 234.279 321.148 233.699L322.163 231.169C322.579 230.586 322.89 230.166 322.183 229.664C321.478 229.159 320.833 229.21 320.094 230.271L318.958 231.938C318.807 232.154 318.693 232.393 318.62 232.646C318.487 233.128 318.553 233.443 319.11 233.839Z" fill="#DE5840"/>
<path d="M321.708 200.571C321.708 200.571 332.21 208.579 335.146 216.405C338.083 224.23 322.427 231.705 322.427 231.705L319.957 230.057C319.87 229.995 319.798 229.915 319.747 229.821C319.695 229.728 319.666 229.624 319.66 229.517C319.654 229.411 319.673 229.304 319.714 229.206C319.756 229.107 319.819 229.02 319.899 228.949C322.023 227.005 328.308 221.12 327.359 219.779C325.776 217.551 315.302 207.981 315.302 207.981L321.708 200.571Z" fill="#F9A066"/>
<path d="M320.191 213.089L319.273 207.915" stroke="#C77B4A" stroke-width="1.73" stroke-linecap="round" stroke-linejoin="round"/>
</g>
<defs>
<clipPath id="clip0_132_922">
<rect width="307" height="261" fill="white" transform="translate(67 41)"/>
</clipPath>
</defs>
</svg>
