<svg width="37" height="36" viewBox="0 0 37 36" fill="none" xmlns="http://www.w3.org/2000/svg">
<path d="M0.555176 18C0.555176 8.05887 8.61405 0 18.5552 0V0C28.4963 0 36.5552 8.05887 36.5552 18V18C36.5552 27.9411 28.4963 36 18.5552 36V36C8.61405 36 0.555176 27.9411 0.555176 18V18Z" fill="#3B5A9A"/>
<path d="M21.888 11.3335V11.3348H21.8884V14.0014H20.555C20.095 14.0014 19.8883 14.5406 19.8883 15.0014V16.6681H19.8884H21.8883V19.3348H19.8883V24.6681L17.2214 24.6668L17.2217 19.3348H15.2217V16.6681H17.2217L17.2217 14.0014C17.2217 12.5287 18.4156 11.3348 19.8884 11.3348L21.888 11.3335Z" fill="white"/>
</svg>
