<svg width="37" height="36" viewBox="0 0 37 36" fill="none" xmlns="http://www.w3.org/2000/svg">
<path d="M0.555176 18C0.555176 8.05888 8.61405 0 18.5552 0C28.4963 0 36.5552 8.05888 36.5552 18C36.5552 27.9411 28.4963 36 18.5552 36C8.61405 36 0.555176 27.9411 0.555176 18Z" fill="#DD4B39"/>
<path d="M13.509 20.3632C14.414 19.039 16.1615 18.9287 17.0222 19.0483C16.7828 18.7816 16.1794 18.2851 16.6052 17.4667C14.6623 17.7148 14.0414 16.4735 13.9527 15.4987C13.7753 13.862 15.159 12.6851 16.5785 12.6665H19.719C19.6125 12.7678 19.0891 13.1264 18.9649 13.1264L18.1399 13.1355C20.2424 15.1861 18.2018 16.9058 17.7848 17.2642C16.942 18.3216 19.5858 18.8458 19.4439 20.639C19.4439 22.2664 18.1221 23.3332 16.055 23.3332C13.7573 23.3241 12.6574 21.8437 13.509 20.3632ZM18.1134 22.3402C18.9384 21.6873 18.7432 20.7218 18.1044 20.078C17.7228 19.6919 17.2616 19.3241 16.2857 19.4435C15.1411 19.5816 14.3073 20.1516 14.3517 21.0435C14.5911 22.9379 17.2261 22.9838 18.1131 22.3309L18.1134 22.3402ZM17.5544 16.777C18.5036 15.9677 17.6254 13.1451 16.3301 13.1451C15.5051 13.1451 15.0793 13.7609 15.0436 14.6347C14.9816 16.2529 16.4101 17.7518 17.5544 16.777ZM21.7506 17.8068L20.3224 17.8161V17.0712H21.733V15.6093H22.4516V17.0715L23.8798 17.0806L23.8886 17.8163H22.4516V19.2876L21.7418 19.2969L21.7506 17.8068Z" fill="white"/>
</svg>
