<svg width="92" height="35" viewBox="0 0 92 35" fill="none" xmlns="http://www.w3.org/2000/svg">
<g clip-path="url(#clip0_116_371)">
<path d="M32.103 32.8174C31.8536 32.8145 31.6091 32.7511 31.3933 32.6331C31.1774 32.5151 30.9974 32.3467 30.8706 32.1439C30.6319 31.7929 30.5105 31.3823 30.522 30.9653V4.0729C30.4971 3.62374 30.6312 3.17954 30.903 2.81016C31.036 2.62499 31.2148 2.47318 31.4238 2.36785C31.6329 2.26251 31.866 2.20681 32.103 2.20558H45.8862C47.1773 2.14037 48.4661 2.36752 49.6452 2.86808C50.8243 3.36864 51.8595 4.12809 52.6644 5.08308C54.1805 6.92744 54.9427 9.62893 54.9427 13.0881C54.9427 16.5472 54.2778 19.3329 52.8833 21.2002C52.1717 22.1697 51.2083 22.9504 50.0853 23.4677C48.9624 23.9849 47.7175 24.2213 46.47 24.1542H41.6864V30.9271C41.6956 31.3462 41.5744 31.7586 41.3378 32.1133C41.2094 32.3141 41.0288 32.4807 40.8132 32.5972C40.5975 32.7137 40.3539 32.7763 40.1054 32.7791L32.103 32.8174ZM42.0675 15.8508C43.019 15.9196 43.9687 15.6968 44.7755 15.2156C45.1153 14.9318 45.378 14.5751 45.5417 14.1757C45.7053 13.7762 45.7651 13.3455 45.716 12.9197C45.7533 12.5398 45.7055 12.1567 45.5756 11.7954C45.4457 11.4342 45.2366 11.1027 44.962 10.8228C44.3467 10.3764 43.5793 10.1586 42.8053 10.2106H40.6V15.8355L42.0675 15.8508Z" fill="#00EAEA"/>
<path d="M39.7891 16.6161H42.0674C43.181 16.6871 44.2894 16.4188 45.2294 15.8508C45.6747 15.4945 46.0223 15.042 46.2425 14.5316C46.4627 14.0213 46.5491 13.4683 46.4942 12.9197C46.5348 12.4327 46.4646 11.9432 46.2884 11.4839C46.1122 11.0246 45.8341 10.6061 45.4726 10.2565C44.71 9.68013 43.748 9.3911 42.7727 9.44529H39.7891V16.6008V16.6161ZM41.4106 10.9759H42.7727C43.3479 10.9412 43.9188 11.0894 44.3943 11.3968C44.7543 11.8309 44.9254 12.3783 44.8727 12.9274C44.9154 13.2333 44.8827 13.5443 44.7772 13.8363C44.6718 14.1284 44.4963 14.3935 44.2646 14.611C43.5989 14.9725 42.8329 15.1352 42.0674 15.0779H41.4106V10.9912V10.9759Z" fill="#065691"/>
<path d="M22.0246 29.9934C19.9814 31.2868 17.0789 31.9679 13.4303 32.0521C11.8775 32.0443 10.3294 31.8905 8.8089 31.5929C7.59902 31.3804 6.45487 30.9149 5.46038 30.2307C4.52308 29.4794 3.83136 28.492 3.46586 27.3838C2.89591 25.8002 2.62157 24.1351 2.65508 22.4629H9.40888C9.48185 24.1083 9.82238 25.1874 10.471 25.8608C10.8157 26.2104 11.2358 26.4862 11.7029 26.6697C12.17 26.8531 12.6733 26.9401 13.179 26.9246C14.096 26.9602 15.0063 26.7619 15.814 26.3506C16.2431 26.1327 16.6002 25.8075 16.8462 25.4106C17.0922 25.0137 17.2176 24.5604 17.2086 24.1007C17.2004 23.7188 17.0976 23.344 16.9086 23.0063C16.7772 22.6871 16.6057 22.3839 16.3978 22.1033C15.8972 21.779 15.3515 21.5214 14.7762 21.338C14.4195 21.1849 13.3249 20.7793 13.3249 20.7793L8.29 19.0421C6.69124 18.5649 5.27971 17.6483 4.2361 16.4095C3.2793 15.0234 2.8163 13.3852 2.91453 11.7335C2.91453 8.58815 3.87936 6.37645 5.85766 5.07545C7.83597 3.77445 10.6413 3.03976 14.233 2.97089C15.6187 2.98287 16.9983 3.14724 18.3437 3.46067C19.5359 3.72573 20.6694 4.18684 21.6922 4.8229C22.6498 5.49171 23.3888 6.40136 23.8245 7.44786C24.4156 8.86309 24.7102 10.3731 24.6921 11.8942H17.0059C17.0188 10.8859 16.6798 9.90157 16.0411 9.09324C15.6727 8.72702 15.2225 8.44289 14.7232 8.26153C14.2239 8.08016 13.6881 8.00612 13.1547 8.04479C12.4077 8.01615 11.667 8.18301 11.0142 8.52693C10.6666 8.7243 10.3812 9.00569 10.1873 9.34203C9.99346 9.67838 9.89827 10.0575 9.91156 10.4402C9.91322 10.7211 9.98014 10.9983 10.1076 11.2522C10.2351 11.506 10.42 11.7304 10.6494 11.9095L18.2626 14.7258C19.5406 15.0996 20.7678 15.6133 21.9192 16.2564C22.6843 16.6796 23.3626 17.2292 23.9218 17.8788C24.992 19.4051 25.5097 21.2174 25.3975 23.0446C25.3569 26.2818 24.2624 28.5547 22.0246 29.9934Z" fill="white"/>
<path d="M61.0395 17.9936L56.4343 4.88411H54.3506C54.2533 4.75401 54.156 4.61625 54.0506 4.48615C52.2912 2.44282 49.7372 1.42498 46.4617 1.42498H31.5109C31.207 1.42788 30.9083 1.49876 30.6391 1.63179C30.3699 1.76483 30.1379 1.95622 29.9623 2.19027C29.6159 2.632 29.4387 3.17165 29.4596 3.72086V4.88411H25.8922C25.3473 4.1415 24.6697 3.49409 23.8896 2.97087C22.634 2.17029 21.2402 1.58241 19.7708 1.23365C18.2254 0.879176 16.6423 0.69175 15.0521 0.674988C10.9009 0.75917 7.60099 1.60865 5.24162 3.20046C3.55414 4.34405 2.33917 6.00475 1.80391 7.89937C1.39314 9.13722 1.19336 10.4288 1.21204 11.7258C1.18295 12.9971 1.40002 14.2628 1.85256 15.4605C2.12414 16.2841 2.53778 17.0598 3.07683 17.7564C3.83075 18.711 4.77554 19.517 5.85781 20.1288H3.10927C2.78208 20.1292 2.46062 20.2098 2.17636 20.3628C1.89211 20.5157 1.65481 20.7357 1.48771 21.0012C1.31138 21.2606 1.18767 21.5486 1.12285 21.8507C1.03594 22.0365 0.989081 22.2369 0.985022 22.44C0.942536 24.244 1.23336 26.0413 1.84445 27.7511V27.8429C1.84445 27.9348 1.90931 28.0496 1.94174 28.1414C2.46363 29.6762 3.44668 31.0348 4.77136 32.0521C6.05651 32.9377 7.53619 33.5393 9.10093 33.8122C10.7945 34.1458 12.5194 34.3176 14.2494 34.325C18.4087 34.2485 21.7572 33.4372 24.2058 31.899C24.7982 31.5061 25.3422 31.0518 25.8273 30.5444H29.4434V31.3097C29.4342 31.8196 29.5929 32.3196 29.8974 32.7408C30.0695 32.9992 30.3089 33.2116 30.5929 33.3577C30.8768 33.5037 31.1957 33.5786 31.519 33.575H40.1781C40.5001 33.5765 40.8174 33.5016 41.1007 33.3572C41.3841 33.2128 41.6244 33.0035 41.7997 32.7485C42.0996 32.3228 42.2552 31.8209 42.2456 31.3097V30.2307H65.3853C63.9529 26.2205 62.5043 22.1415 61.0395 17.9936ZM22.8355 29.9934C20.7924 31.2868 17.8898 31.9679 14.2413 32.0521C12.6885 32.0443 11.1403 31.8905 9.61983 31.5929C8.40994 31.3804 7.2658 30.9149 6.27131 30.2307C5.33401 29.4793 4.64229 28.492 4.27679 27.3838C3.70683 25.8001 3.4325 24.1351 3.46601 22.4629H10.2198C10.2928 24.1083 10.6333 25.1874 11.2819 25.8608C11.6267 26.2104 12.0467 26.4861 12.5138 26.6696C12.9809 26.8531 13.4843 26.9401 13.9899 26.9246C14.907 26.9602 15.8172 26.7619 16.625 26.3506C17.054 26.1327 17.4111 25.8075 17.6571 25.4106C17.9031 25.0136 18.0285 24.5604 18.0195 24.1007C18.0113 23.7188 17.9086 23.344 17.7195 23.0063C17.5881 22.6871 17.4166 22.3839 17.2087 22.1032C16.7081 21.7789 16.1624 21.5214 15.5872 21.3379C15.2304 21.1849 14.1359 20.7793 14.1359 20.7793L9.10093 19.0421C7.50216 18.5649 6.09063 17.6483 5.04703 16.4094C4.09023 15.0234 3.62722 13.3852 3.72546 11.7335C3.72546 8.58813 4.69029 6.37643 6.66859 5.07543C8.64689 3.77443 11.4522 3.03975 15.0439 2.97087C16.4297 2.98286 17.8092 3.14723 19.1546 3.46066C20.3468 3.72571 21.4803 4.18683 22.5031 4.82288C23.4608 5.4917 24.1997 6.40135 24.6355 7.44784C25.2265 8.86307 25.5212 10.3731 25.503 11.8942H17.8168C17.8298 10.8859 17.4907 9.90156 16.852 9.09323C16.4836 8.727 16.0335 8.44288 15.5342 8.26151C15.0349 8.08015 14.499 8.00611 13.9656 8.04477C13.2187 8.01613 12.4779 8.18299 11.8251 8.52691C11.4775 8.72428 11.1921 9.00568 10.9982 9.34202C10.8044 9.67836 10.7092 10.0575 10.7225 10.4401C10.7241 10.7211 10.7911 10.9983 10.9186 11.2522C11.046 11.506 11.231 11.7304 11.4603 11.9095L19.0735 14.7258C20.3515 15.0996 21.5787 15.6133 22.7301 16.2564C23.4953 16.6796 24.1736 17.2291 24.7328 17.8788C25.8029 19.4051 26.3206 21.2174 26.2084 23.0445C26.1678 26.2817 25.0733 28.5547 22.8355 29.9934ZM52.3236 20.1823C51.1642 21.7129 49.4453 22.4094 47.0779 22.4094H39.7808V31.2868H31.892V3.73617H46.486C49.0237 3.73617 50.8885 4.50146 52.1615 5.96317C53.4344 7.42489 54.1722 9.88913 54.1722 13.0039C54.1722 16.1186 53.5479 18.5982 52.3236 20.1823Z" fill="#065691"/>
<path d="M90.9898 1.18765C90.932 1.03067 90.8216 0.895737 90.6753 0.803231C90.5291 0.710725 90.3549 0.665678 90.1791 0.674899H80.5064C80.3072 0.679365 80.1167 0.752922 79.9713 0.881528C79.8032 1.03169 79.6872 1.2265 79.6389 1.44019V1.39428L74.7175 16.1874C74.2634 14.8099 73.8445 13.5191 73.4608 12.315C73.0716 11.1135 72.6986 9.93496 72.35 8.78702C72.0014 7.63908 71.6284 6.49114 71.2392 5.26667C70.8501 4.04219 70.4284 2.77181 69.9825 1.39428V1.44019C69.9244 1.23141 69.7999 1.04444 69.6258 0.904487C69.4861 0.769194 69.2984 0.68742 69.0988 0.674899H58.6884C58.5145 0.664621 58.3418 0.707448 58.1958 0.79704C58.0498 0.886632 57.9382 1.01823 57.8776 1.17234C57.7973 1.34884 57.7559 1.53892 57.7559 1.73101C57.7559 1.92309 57.7973 2.11317 57.8776 2.28967V2.25906L58.2424 3.29221C59.7343 7.47071 61.2585 11.7104 62.8233 16.065C64.2827 20.1465 65.7232 24.1261 67.1448 28.0036C67.3637 28.6235 67.5988 29.251 67.8177 29.8709C67.8916 30.0448 68.0083 30.1996 68.1583 30.3224C68.2822 30.4498 68.4537 30.5266 68.6366 30.5367H80.2146C80.6037 30.5367 80.8713 30.3148 81.0253 29.8709C82.6469 25.2791 84.3063 20.6874 86.0035 16.0956C87.7008 11.5038 89.3575 6.91205 90.9736 2.32028V2.3662C91.0659 2.18238 91.115 1.98196 91.1178 1.77859C91.1206 1.57522 91.077 1.37366 90.9898 1.18765Z" fill="#065691"/>
</g>
<defs>
<clipPath id="clip0_116_371">
<rect width="90.1101" height="33.65" fill="white" transform="translate(0.993164 0.674988)"/>
</clipPath>
</defs>
</svg>
