<svg width="91" height="34" viewBox="0 0 91 34" fill="none" xmlns="http://www.w3.org/2000/svg">
<g clip-path="url(#clip0_224_235)">
<path d="M39.241 16.1157H41.5193C42.6329 16.1867 43.7413 15.9185 44.6813 15.3504C45.1266 14.9941 45.4742 14.5416 45.6944 14.0313C45.9146 13.5209 46.001 12.968 45.9461 12.4194C45.9867 11.9324 45.9165 11.4428 45.7403 10.9835C45.5641 10.5242 45.286 10.1057 44.9245 9.75613C44.1619 9.17976 43.1999 8.89073 42.2246 8.94492H39.241V16.1004V16.1157Z" fill="white"/>
<path d="M60.5036 17.4934L55.8984 4.38392H53.8147C53.7174 4.25382 53.6201 4.11607 53.5147 3.98597C51.7553 1.94264 49.2013 0.924793 45.9258 0.924793H30.975C30.6712 0.927697 30.3724 0.998575 30.1032 1.13161C29.834 1.26464 29.602 1.45604 29.4264 1.69009C29.08 2.13181 28.9028 2.67146 28.9237 3.22068V4.38392H25.3563C24.8114 3.64132 24.1338 2.99391 23.3537 2.47069C22.0981 1.6701 20.7043 1.08223 19.2349 0.73347C17.6895 0.378993 16.1064 0.191567 14.5162 0.174805C10.365 0.258987 7.0651 1.10846 4.70573 2.70028C3.01825 3.84387 1.80328 5.50456 1.26802 7.39918C0.857251 8.63703 0.65747 9.92863 0.676152 11.2257C0.647064 12.497 0.864129 13.7626 1.31667 14.9603C1.58825 15.7839 2.00189 16.5596 2.54095 17.2562C3.29486 18.2109 4.23965 19.0168 5.32192 19.6286H2.57338C2.24619 19.629 1.92473 19.7096 1.64047 19.8626C1.35622 20.0155 1.11892 20.2355 0.951817 20.501C0.775494 20.7604 0.651777 21.0485 0.586966 21.3505C0.500047 21.5364 0.453192 21.7367 0.449133 21.9398C0.406647 23.7438 0.697471 25.5411 1.30856 27.2509V27.3428C1.30856 27.4346 1.37342 27.5494 1.40585 27.6412C1.92774 29.176 2.91079 30.5346 4.23548 31.5519C5.52062 32.4375 7.00031 33.0391 8.56504 33.3121C10.2586 33.6456 11.9835 33.8174 13.7135 33.8248C17.8728 33.7483 21.2213 32.9371 23.6699 31.3988C24.2624 31.006 24.8063 30.5516 25.2914 30.0443H28.9075V30.8095C28.8983 31.3194 29.057 31.8195 29.3615 32.2406C29.5336 32.4991 29.7731 32.7115 30.057 32.8575C30.3409 33.0036 30.6598 33.0784 30.9831 33.0748H39.6422C39.9642 33.0763 40.2815 33.0014 40.5648 32.857C40.8482 32.7126 41.0885 32.5033 41.2638 32.2483C41.5638 31.8226 41.7193 31.3207 41.7097 30.8095V29.7305H64.8494C63.417 25.7203 61.9684 21.6413 60.5036 17.4934ZM22.2997 29.4932C20.2565 30.7866 17.3539 31.4677 13.7054 31.5519C12.1526 31.5441 10.6044 31.3903 9.08394 31.0927C7.87405 30.8802 6.72991 30.4147 5.73542 29.7305C4.79812 28.9792 4.1064 27.9918 3.7409 26.8836C3.17094 25.3 2.89661 23.635 2.93012 21.9627H9.68392C9.75689 23.6081 10.0974 24.6872 10.746 25.3606C11.0908 25.7102 11.5108 25.986 11.9779 26.1695C12.445 26.3529 12.9484 26.4399 13.454 26.4244C14.3711 26.46 15.2813 26.2617 16.0891 25.8504C16.5181 25.6325 16.8752 25.3073 17.1212 24.9104C17.3672 24.5135 17.4926 24.0602 17.4836 23.6005C17.4754 23.2186 17.3727 22.8438 17.1836 22.5061C17.0522 22.1869 16.8807 21.8837 16.6728 21.6031C16.1722 21.2788 15.6265 21.0212 15.0513 20.8378C14.6945 20.6847 13.6 20.2791 13.6 20.2791L8.56504 18.5419C6.96628 18.0647 5.55474 17.1481 4.51114 15.9093C3.55434 14.5232 3.09133 12.885 3.18957 11.2333C3.18957 8.08795 4.1544 5.87625 6.1327 4.57525C8.111 3.27425 10.9163 2.53956 14.5081 2.47069C15.8938 2.48268 17.2733 2.64705 18.6187 2.96048C19.8109 3.22553 20.9444 3.68664 21.9672 4.3227C22.9249 4.99152 23.6638 5.90116 24.0996 6.94766C24.6906 8.36289 24.9853 9.8729 24.9671 11.394H17.2809C17.2939 10.3857 16.9548 9.40137 16.3161 8.59304C15.9478 8.22682 15.4976 7.9427 14.9983 7.76133C14.499 7.57997 13.9631 7.50593 13.4297 7.54459C12.6828 7.51595 11.942 7.68281 11.2893 8.02673C10.9417 8.2241 10.6562 8.50549 10.4623 8.84184C10.2685 9.17818 10.1733 9.55728 10.1866 9.93996C10.1883 10.2209 10.2552 10.4981 10.3827 10.752C10.5101 11.0058 10.6951 11.2302 10.9244 11.4093L18.5376 14.2256C19.8156 14.5994 21.0428 15.1131 22.1943 15.7562C22.9594 16.1794 23.6377 16.729 24.1969 17.3786C25.267 18.9049 25.7847 20.7172 25.6725 22.5444C25.632 25.7816 24.5374 28.0545 22.2997 29.4932ZM51.7877 19.6822C50.6283 21.2128 48.9095 21.9092 46.542 21.9092H39.245V30.7866H31.3561V3.23598H45.9501C48.4878 3.23598 50.3526 4.00128 51.6256 5.46299C52.8985 6.9247 53.6363 9.38895 53.6363 12.5037C53.6363 15.6184 53.012 18.098 51.7877 19.6822Z" fill="white"/>
<path d="M90.4417 0.687585C90.3839 0.530612 90.2735 0.395675 90.1272 0.30317C89.981 0.210664 89.8068 0.165617 89.631 0.174838H79.9584C79.7591 0.179304 79.5687 0.252861 79.4232 0.381467C79.2551 0.531624 79.1391 0.726437 79.0908 0.940132V0.894214L74.1694 15.6874C73.7153 14.3098 73.2964 13.019 72.9127 11.815C72.5235 10.6135 72.1505 9.4349 71.8019 8.28696C71.4533 7.13902 71.0803 5.99108 70.6911 4.7666C70.302 3.54213 69.8804 2.27174 69.4344 0.894214V0.940132C69.3763 0.731346 69.2518 0.544384 69.0777 0.404426C68.9381 0.269133 68.7503 0.187359 68.5507 0.174838H58.1403C57.9664 0.164559 57.7937 0.207387 57.6477 0.296979C57.5017 0.386571 57.3901 0.518165 57.3295 0.672279C57.2492 0.848779 57.2078 1.03886 57.2078 1.23094C57.2078 1.42303 57.2492 1.61311 57.3295 1.78961V1.759L57.6943 2.79215C59.1862 6.97065 60.7104 11.2104 62.2752 15.5649C63.7346 19.6465 65.1751 23.626 66.5967 27.5035C66.8156 28.1234 67.0507 28.7509 67.2696 29.3708C67.3435 29.5447 67.4602 29.6995 67.6102 29.8223C67.7341 29.9497 67.9056 30.0265 68.0885 30.0366H79.6665C80.0556 30.0366 80.3232 29.8147 80.4773 29.3708C82.0988 24.7791 83.7582 20.1873 85.4554 15.5955C87.1527 11.0038 88.8094 6.41199 90.4255 1.82022V1.86614C90.5178 1.68232 90.5669 1.4819 90.5697 1.27853C90.5725 1.07516 90.5289 0.873602 90.4417 0.687585Z" fill="white"/>
</g>
<defs>
<clipPath id="clip0_224_235">
<rect width="90.1101" height="33.65" fill="white" transform="translate(0.445068 0.174805)"/>
</clipPath>
</defs>
</svg>
