<svg width="443" height="318" viewBox="0 0 443 318" fill="none" xmlns="http://www.w3.org/2000/svg">
<path d="M0 9.99999C0 4.47714 4.47715 0 10 0H433C438.523 0 443 4.47715 443 10V318H0V9.99999Z" fill="#F2F7FF"/>
<g clip-path="url(#clip0_132_923)">
<path d="M350.967 194.46C313.791 249.357 227.633 180.08 208.197 199.381C208.197 199.381 168.662 240.322 127.482 192.148C86.3017 143.974 133.341 62.4958 217.624 52.2291C318.766 39.9098 416.489 97.711 350.967 194.46Z" fill="#EBEDFA"/>
<path d="M290.273 78.2362L198.688 82.5866L203.455 177.248L295.04 172.898L290.273 78.2362Z" fill="#DBE0F7"/>
<path d="M276.15 113.097L216.24 115.943L216.527 121.63L276.437 118.785L276.15 113.097Z" fill="#EBEDFA"/>
<path d="M273.986 94.0548L215.278 96.8434L215.565 102.531L274.272 99.7425L273.986 94.0548Z" fill="#EBEDFA"/>
<path d="M277.164 133.185L217.254 136.031L217.54 141.719L277.45 138.873L277.164 133.185Z" fill="#EBEDFA"/>
<path d="M248.258 155.422L218.303 156.845L218.589 162.533L248.544 161.11L248.258 155.422Z" fill="#EBEDFA"/>
<path d="M369.574 100.592L277.074 70.3925L243.984 166.001L336.483 196.2L369.574 100.592Z" fill="#CCD0E6"/>
<path d="M341.658 129.819L281.148 110.064L279.161 115.808L339.67 135.563L341.658 129.819Z" fill="#EBEDFA"/>
<path d="M347.115 110.131L287.823 90.7735L285.835 96.5172L345.127 115.875L347.115 110.131Z" fill="#EBEDFA"/>
<path d="M334.636 150.108L274.126 130.353L272.139 136.097L332.648 155.852L334.636 150.108Z" fill="#EBEDFA"/>
<path d="M297.108 161.252L266.853 151.375L264.865 157.118L295.12 166.996L297.108 161.252Z" fill="#EBEDFA"/>
<path d="M268.688 271.056L302.154 259.199L280.625 246.307L268.688 271.056Z" fill="#E4E6F2"/>
<path d="M191.197 162.074C191.197 162.074 187.282 87.2245 128.358 62.225L167.983 158.958C167.983 158.958 143.928 108.139 78.9878 127.259C78.9878 127.259 138.064 150.281 156.131 182.023C156.131 182.023 165.186 198.753 169.761 209.718C184.328 244.623 191.197 162.074 191.197 162.074Z" fill="#CCD0E6"/>
<path d="M244.152 53.5667C246.378 52.6709 247.436 50.1915 246.514 48.0288C245.591 45.8661 243.038 44.8391 240.812 45.7349C238.585 46.6308 237.527 49.1101 238.45 51.2728C239.372 53.4355 241.925 54.4626 244.152 53.5667Z" stroke="#272B47" stroke-width="2.11" stroke-linecap="round" stroke-linejoin="round"/>
<path d="M130.526 177.158C132.753 176.262 133.81 173.782 132.888 171.62C131.966 169.457 129.413 168.43 127.186 169.326C124.959 170.222 123.902 172.701 124.824 174.864C125.746 177.027 128.299 178.054 130.526 177.158Z" stroke="#272B47" stroke-width="2.11" stroke-linecap="round" stroke-linejoin="round"/>
<path d="M371.212 193.27C373.622 193.27 375.576 191.373 375.576 189.032C375.576 186.691 373.622 184.793 371.212 184.793C368.801 184.793 366.847 186.691 366.847 189.032C366.847 191.373 368.801 193.27 371.212 193.27Z" stroke="#272B47" stroke-width="2.11" stroke-linecap="round" stroke-linejoin="round"/>
<path d="M293.494 259.666L172.423 234.879C167.469 233.866 166.116 231.107 169.397 228.713L190.385 213.407C193.666 211.017 200.345 209.903 205.3 210.915L326.37 235.703C331.325 236.716 332.682 239.478 329.397 241.869L308.409 257.174C305.148 259.564 298.448 260.679 293.494 259.666Z" fill="#E4E6F2"/>
<path d="M327.134 141.207L308.268 137.428C307.972 137.296 307.664 137.194 307.346 137.126L184.611 112.53C183.836 112.391 183.04 112.424 182.281 112.628C181.522 112.832 180.821 113.201 180.23 113.708L175.689 116.847L178.113 120.203L173.341 205.594C173.254 206.614 173.555 207.63 174.187 208.449C174.819 209.268 175.739 209.834 176.771 210.04L298.469 237.198L298.832 236.947L318.252 241.264C318.252 241.264 322.091 238.627 323.231 237.862C323.928 237.403 324.509 236.797 324.929 236.089C325.349 235.38 325.597 234.588 325.655 233.772L330.581 145.642C330.664 144.621 330.359 143.606 329.724 142.789C329.089 141.972 328.168 141.409 327.134 141.207Z" fill="#89A1DE"/>
<path d="M322.281 144.531L303.415 140.752C303.12 140.618 302.811 140.516 302.493 140.45L179.762 115.854C176.715 115.246 173.587 117.671 173.413 120.784L168.488 208.914C168.401 209.934 168.702 210.95 169.334 211.769C169.966 212.589 170.886 213.155 171.918 213.36L190.785 217.144C191.08 217.275 191.389 217.375 191.706 217.442L314.442 242.037C317.485 242.649 320.612 240.22 320.786 237.108L325.712 148.978C325.799 147.957 325.499 146.941 324.866 146.121C324.234 145.302 323.314 144.736 322.281 144.531Z" fill="white"/>
<path d="M322.281 144.531L303.447 140.756C303.143 140.618 302.822 140.515 302.493 140.45L179.762 115.854C176.715 115.246 173.587 117.671 173.414 120.784L172.973 128.715L325.049 160.112L325.712 148.974C325.799 147.954 325.497 146.939 324.865 146.12C324.233 145.301 323.314 144.736 322.281 144.531Z" fill="#3F5A9E"/>
<path d="M203.962 128.817C203.902 129.426 204.066 130.036 204.425 130.539C204.783 131.042 205.314 131.405 205.922 131.564C206.2 131.633 206.49 131.641 206.771 131.589C207.053 131.536 207.319 131.423 207.551 131.259C207.782 131.095 207.974 130.883 208.111 130.639C208.249 130.394 208.329 130.123 208.346 129.845C208.405 129.237 208.24 128.628 207.882 128.125C207.523 127.623 206.994 127.259 206.387 127.098C206.109 127.03 205.818 127.021 205.537 127.074C205.255 127.127 204.989 127.239 204.758 127.404C204.526 127.568 204.335 127.78 204.197 128.024C204.06 128.268 203.979 128.539 203.962 128.817Z" fill="white"/>
<path d="M195.775 126.926C195.716 127.534 195.881 128.144 196.239 128.647C196.598 129.149 197.128 129.513 197.735 129.673C198.013 129.741 198.304 129.75 198.586 129.697C198.868 129.644 199.134 129.531 199.365 129.366C199.597 129.202 199.788 128.989 199.926 128.744C200.063 128.499 200.143 128.228 200.16 127.95C200.219 127.341 200.055 126.732 199.696 126.229C199.337 125.726 198.808 125.363 198.2 125.203C197.922 125.134 197.631 125.126 197.349 125.179C197.068 125.232 196.801 125.345 196.57 125.509C196.338 125.674 196.147 125.886 196.009 126.131C195.872 126.376 195.792 126.647 195.775 126.926Z" fill="white"/>
<path d="M187.589 125.03C187.53 125.639 187.695 126.248 188.053 126.75C188.412 127.253 188.941 127.616 189.548 127.777C189.827 127.846 190.117 127.854 190.399 127.801C190.681 127.748 190.947 127.635 191.179 127.471C191.41 127.306 191.602 127.094 191.739 126.849C191.876 126.604 191.956 126.333 191.973 126.054C192.031 125.446 191.867 124.836 191.508 124.334C191.15 123.832 190.62 123.468 190.013 123.307C189.735 123.239 189.445 123.231 189.163 123.285C188.882 123.338 188.616 123.451 188.384 123.616C188.153 123.78 187.961 123.992 187.824 124.237C187.686 124.481 187.606 124.752 187.589 125.03Z" fill="white"/>
<path d="M312.119 178.632L224.195 161.54C223.237 161.356 222.518 160.292 222.578 159.166L222.607 158.687C222.675 157.565 223.508 156.803 224.461 156.988L312.389 174.079C313.343 174.268 314.066 175.331 314.006 176.434L313.974 176.913C313.905 178.059 313.076 178.82 312.119 178.632Z" fill="#DEE7FF"/>
<path d="M311.298 192.038L223.37 174.947C222.417 174.758 221.697 173.695 221.754 172.592L221.782 172.113C221.851 170.987 222.683 170.225 223.637 170.414L311.565 187.505C312.519 187.694 313.238 188.753 313.181 189.86L313.153 190.339C313.084 191.465 312.252 192.223 311.298 192.038Z" fill="#DEE7FF"/>
<path d="M202.14 193.247L194.297 191.728C193.854 191.653 193.452 191.433 193.158 191.104C192.864 190.776 192.695 190.358 192.68 189.923L192.721 189.232C192.769 188.42 193.569 187.909 194.515 188.09L202.358 189.613C202.801 189.686 203.203 189.906 203.498 190.235C203.793 190.564 203.961 190.982 203.974 191.418L203.934 192.105C203.885 192.921 203.085 193.431 202.14 193.247Z" fill="white"/>
<path d="M300.598 212.34L214.379 195.621C213.212 195.394 212.315 194.397 212.359 193.396C212.416 192.391 213.406 191.76 214.569 191.983L300.792 208.706C301.956 208.93 302.853 209.926 302.813 210.931C302.752 211.936 301.762 212.568 300.598 212.34Z" fill="white"/>
<path d="M201.465 204.962L193.622 203.439C193.179 203.365 192.777 203.145 192.482 202.816C192.188 202.487 192.019 202.069 192.005 201.634L192.046 200.947C192.094 200.131 192.894 199.62 193.84 199.805L201.683 201.324C202.125 201.398 202.528 201.618 202.822 201.947C203.117 202.276 203.285 202.693 203.299 203.129L203.259 203.82C203.215 204.632 202.41 205.142 201.465 204.962Z" fill="white"/>
<path d="M262.421 216.783L213.705 207.336C212.541 207.108 211.644 206.112 211.684 205.107C211.741 204.102 212.731 203.47 213.899 203.698L262.615 213.144C263.778 213.372 264.675 214.369 264.615 215.374C264.574 216.374 263.584 217.018 262.421 216.783Z" fill="white"/>
<path d="M213.249 300.788C224.947 299.522 233.971 294.503 233.406 289.579C232.841 284.655 222.9 281.689 211.203 282.955C199.505 284.222 190.481 289.24 191.046 294.165C191.611 299.089 201.552 302.054 213.249 300.788Z" fill="#E4E6F2"/>
<path d="M222.76 284.274C222.974 284.909 223.035 289.768 222.76 290.494C222.299 292.758 220.263 295.019 216.667 296.828C208.775 300.804 196.398 301.122 189.015 297.539C185.577 295.867 183.637 294.061 183.411 291.652C183.205 290.353 182.877 286.711 182.877 286.711C183.075 285.894 184.19 286.652 184.801 285.863C185.787 284.317 187.528 282.841 190.03 281.581C197.921 277.606 210.298 277.288 217.681 280.871C220.784 282.378 222.392 282.213 222.76 284.274Z" fill="#F0833C"/>
<path d="M203.55 294.975C214.564 294.206 223.165 289.147 222.76 283.675C222.355 278.204 213.098 274.391 202.084 275.16C191.07 275.928 182.47 280.987 182.875 286.459C183.279 291.931 192.536 295.743 203.55 294.975Z" fill="#F9A066"/>
<g style="mix-blend-mode:multiply" opacity="0.29">
<path d="M202.326 300.027C202.326 300.027 210.169 296.824 211.704 293.587C211.704 293.587 223.116 290.474 222.809 283.885C222.809 283.885 223.112 284.383 222.885 289.634C222.885 289.634 222.946 293.037 218.335 295.886C218.335 295.902 212.553 299.874 202.326 300.027Z" fill="#BF865A"/>
</g>
<path d="M196.462 281.055L197.372 287.48L213.648 282.264" stroke="white" stroke-width="4.24" stroke-linecap="round" stroke-linejoin="round"/>
<path d="M201.19 188.828C201.208 188.209 201.011 187.601 200.632 187.103C200.252 186.605 199.712 186.245 199.097 186.081L196.701 185.531C196.426 185.458 196.138 185.448 195.859 185.5C195.579 185.553 195.316 185.668 195.089 185.835C194.863 186.002 194.679 186.218 194.552 186.465C194.425 186.713 194.358 186.985 194.357 187.262C194.341 187.881 194.538 188.487 194.917 188.985C195.297 189.483 195.836 189.843 196.45 190.009L198.85 190.559C199.125 190.632 199.413 190.642 199.692 190.589C199.971 190.537 200.234 190.422 200.461 190.255C200.687 190.087 200.871 189.872 200.997 189.624C201.124 189.377 201.19 189.104 201.19 188.828Z" fill="#9BB3F0"/>
<path d="M201.946 182.242C201.962 181.623 201.765 181.017 201.385 180.519C201.006 180.022 200.467 179.661 199.853 179.495L197.452 178.942C197.178 178.87 196.89 178.86 196.61 178.913C196.331 178.966 196.068 179.081 195.842 179.249C195.616 179.416 195.432 179.632 195.306 179.88C195.179 180.128 195.113 180.4 195.113 180.677C195.095 181.296 195.292 181.903 195.671 182.401C196.051 182.899 196.591 183.259 197.206 183.424L199.602 183.973C199.877 184.046 200.165 184.057 200.444 184.004C200.724 183.951 200.987 183.837 201.214 183.669C201.44 183.502 201.624 183.286 201.751 183.039C201.878 182.791 201.945 182.519 201.946 182.242Z" fill="#9BB3F0"/>
<path d="M197.145 190.111L198.677 162.415C198.702 161.463 198.397 160.529 197.811 159.765C197.225 159.001 196.391 158.45 195.444 158.2C195.023 158.086 194.579 158.067 194.15 158.147C193.72 158.227 193.315 158.402 192.967 158.66C192.618 158.918 192.336 159.25 192.143 159.631C191.95 160.013 191.85 160.432 191.852 160.857L190.32 188.553C190.293 189.504 190.595 190.436 191.177 191.201C191.759 191.966 192.589 192.519 193.533 192.772C193.956 192.891 194.401 192.912 194.834 192.833C195.267 192.755 195.675 192.58 196.026 192.321C196.377 192.063 196.661 191.729 196.855 191.345C197.049 190.961 197.149 190.539 197.145 190.111Z" fill="#9BB3F0"/>
<path d="M204.578 170.667C210.503 166.695 211.337 157.892 206.442 151.005C201.547 144.118 192.775 141.755 186.851 145.728C180.926 149.7 180.091 158.504 184.987 165.391C189.882 172.277 198.653 174.64 204.578 170.667Z" fill="#9BB3F0"/>
<path d="M183.734 163.346C186.025 167.663 190.118 171.077 194.915 172.176C200.091 173.353 204.766 171.536 207.393 167.859" stroke="#3F5A9E" stroke-width="1.54" stroke-linecap="round" stroke-linejoin="round"/>
<path d="M196.942 152.073C198.465 151.053 198.681 148.791 197.424 147.021C196.167 145.251 193.914 144.643 192.391 145.663C190.868 146.683 190.652 148.945 191.909 150.715C193.165 152.485 195.419 153.093 196.942 152.073Z" fill="#DEE7FF"/>
<path d="M143.241 257.241L200.459 233.694C207.328 230.872 207.114 220.77 200.156 219.243L162.818 211.049L143.241 257.241Z" fill="#E4E6F2"/>
<path d="M182.606 223.709V214.534L154.022 217.226C153.767 217.159 153.496 217.187 153.262 217.305L110.288 240.342L110.526 249.517C110.563 250 110.526 250.51 110.817 250.569L142.481 257.32C142.736 257.382 143.005 257.355 143.241 257.241L181.903 225.26C182.124 225.062 182.301 224.823 182.422 224.556C182.543 224.289 182.606 224.001 182.606 223.709Z" fill="#6889E3"/>
<path d="M182.606 223.709L182.562 214.683L154.022 217.234C153.739 217.171 142.109 225.84 141.972 225.946C141.972 225.946 142.699 257.343 142.804 257.343C142.957 257.349 143.109 257.312 143.241 257.237L181.903 225.26C182.124 225.062 182.301 224.823 182.422 224.556C182.543 224.289 182.606 224.001 182.606 223.709Z" fill="#4E67AB"/>
<path d="M142.978 247.308L182.606 214.534C182.74 214.428 182.627 213.839 182.344 213.776L153.759 207.293C153.504 207.229 153.234 207.258 152.999 207.375L110.288 240.342C110.155 240.448 110.288 240.581 110.555 240.64L142.223 247.386C142.476 247.454 142.745 247.425 142.978 247.308Z" fill="#A1BAFC"/>
<path d="M148.122 230.893C152.971 230.423 156.723 228.291 156.501 226.132C156.279 223.973 152.168 222.604 147.318 223.075C142.468 223.545 138.716 225.676 138.938 227.835C139.16 229.994 143.272 231.363 148.122 230.893Z" fill="#169E6F"/>
<path d="M117.764 238.328C118.176 238.732 118.709 238.999 119.287 239.09L139.422 243.379C140.04 243.509 140.675 243.534 141.301 243.454C141.736 243.417 142.153 243.273 142.514 243.034L176.658 216.681C176.736 216.632 176.802 216.568 176.853 216.492C176.904 216.417 176.937 216.332 176.952 216.244C176.967 216.155 176.963 216.064 176.939 215.977C176.916 215.89 176.874 215.809 176.816 215.739L176.796 215.715L176.844 215.68L176.751 215.656C176.338 215.253 175.803 214.988 175.224 214.899L155.089 210.605C153.917 210.358 152.591 210.507 152.009 210.955L117.865 237.308C117.725 237.397 117.625 237.534 117.586 237.691C117.547 237.849 117.572 238.015 117.654 238.156L117.505 238.274L117.764 238.328ZM135.842 241.672L123.748 239.094C125.001 237.787 124.37 236.398 122.212 235.656L150.64 213.717C153.367 214.016 156.543 213.439 158.487 212.281L170.581 214.856C169.296 216.194 169.991 217.603 172.27 218.345L143.879 240.255C141.091 239.91 137.83 240.483 135.838 241.672H135.842Z" fill="#169E6F"/>
<path d="M110.441 245.667L141.742 251.947C142.8 252.17 144.166 251.405 145.067 250.679L182.606 219.141" stroke="#3F5A9E" stroke-width="0.93" stroke-linecap="round" stroke-linejoin="round"/>
<path d="M182.711 211.163V201.987L154.127 204.679C153.872 204.614 153.602 204.642 153.367 204.758L110.381 227.795L110.619 236.974C110.66 237.453 110.619 237.964 110.91 238.022L142.578 244.773C142.831 244.836 143.1 244.808 143.334 244.694L181.984 212.728C182.21 212.53 182.392 212.289 182.517 212.02C182.642 211.75 182.708 211.458 182.711 211.163Z" fill="#6889E3"/>
<path d="M182.711 211.163V201.987L154.127 204.679C153.844 204.616 142.214 213.286 142.077 213.392C142.077 213.392 142.804 244.788 142.909 244.788C143.062 244.795 143.214 244.758 143.346 244.682L181.996 212.717C182.219 212.519 182.397 212.279 182.52 212.012C182.643 211.744 182.708 211.455 182.711 211.163Z" fill="#4E67AB"/>
<path d="M143.087 234.761L182.712 201.987C182.849 201.881 182.712 201.292 182.449 201.233L153.864 194.746C153.61 194.682 153.341 194.711 153.109 194.829L110.393 227.795C110.26 227.901 110.393 228.034 110.664 228.093L142.328 234.844C142.583 234.909 142.853 234.88 143.087 234.761Z" fill="#A1BAFC"/>
<path d="M148.232 218.346C153.082 217.876 156.834 215.745 156.612 213.586C156.39 211.427 152.279 210.058 147.429 210.528C142.579 210.998 138.827 213.13 139.049 215.289C139.271 217.448 143.382 218.817 148.232 218.346Z" fill="#6889E3"/>
<path d="M117.873 225.782C118.286 226.186 118.821 226.453 119.4 226.543L139.535 230.833C140.151 230.962 140.786 230.987 141.41 230.907C141.845 230.87 142.262 230.725 142.623 230.487L176.763 204.134C176.841 204.085 176.907 204.021 176.958 203.945C177.009 203.87 177.043 203.785 177.057 203.697C177.072 203.608 177.068 203.517 177.044 203.43C177.021 203.343 176.979 203.262 176.921 203.192V203.168L176.97 203.133L176.873 203.109C176.459 202.708 175.926 202.443 175.349 202.352L155.214 198.062C154.038 197.811 152.713 197.96 152.135 198.408L117.99 224.761C117.849 224.849 117.749 224.986 117.709 225.144C117.669 225.301 117.693 225.468 117.776 225.609L117.63 225.727L117.873 225.782ZM135.951 229.125L123.857 226.547C125.11 225.24 124.479 223.851 122.326 223.109L150.749 201.171C153.48 201.469 156.656 200.892 158.596 199.734L170.69 202.309C169.409 203.647 170.1 205.056 172.379 205.798L143.992 227.713C141.22 227.363 137.939 227.936 135.951 229.125Z" fill="#6889E3"/>
<path d="M110.551 233.136L141.855 239.416C142.913 239.639 144.279 238.874 145.176 238.148L182.716 206.61" stroke="#3F5A9E" stroke-width="0.93" stroke-linecap="round" stroke-linejoin="round"/>
<path d="M268.522 270.942L284.936 258.583L285.922 214.962L268.809 222.662L268.522 270.942Z" fill="#5676D1"/>
<path d="M188.498 208.584L188.074 255.55L268.688 271.056L269.407 223.859L188.498 208.584Z" fill="#6C8EEB"/>
<path d="M269.803 223.965L188.518 208.588L229.771 179.527L269.803 223.965Z" fill="#6C8EEB"/>
<path d="M229.771 179.527L244.095 172.239L285.966 214.895L269.803 223.965L229.771 179.527Z" fill="#5879D6"/>
<path d="M237.574 265.067L212.622 260.341L213.979 224.632L238.931 229.361L237.574 265.067Z" fill="#5372C9"/>
<path d="M233.024 208.502C232.878 212.301 229.642 214.781 225.795 214.059C221.948 213.337 218.946 209.659 219.091 205.864C219.236 202.069 222.469 199.585 226.316 200.307C230.163 201.029 233.165 204.707 233.024 208.502Z" fill="#5372C9"/>
<path d="M331.923 281.381C326.669 278.394 317.549 277.951 311.541 280.384C310.62 280.747 309.749 281.217 308.946 281.785C305.217 280.494 300.109 280.49 296.553 281.934C292.335 283.646 291.902 286.73 295.592 288.83C299.135 290.847 305.193 291.208 309.403 289.717C309.646 289.882 309.9 290.043 310.175 290.2C315.428 293.182 324.548 293.63 330.557 291.196C336.565 288.763 337.172 284.352 331.923 281.381Z" fill="#E4E6F2"/>
<path d="M316.842 288.838L321.126 283.736C322.057 283.339 323.087 283.211 324.091 283.367C324.298 283.386 324.49 283.48 324.63 283.629C324.77 283.779 324.847 283.974 324.847 284.175L324.976 285.003C325.154 286.401 325.344 286.856 324.459 287.335L319.206 290.172C318.131 291.02 315.036 290.678 316.842 288.838Z" fill="#313363"/>
<path d="M321.311 284.238C321.311 284.238 318.867 287.268 319.194 287.468C320.556 288.312 323.639 285.627 323.639 285.627C323.639 285.627 321.889 284.073 321.311 284.238Z" fill="#DE5840"/>
<path d="M324.577 284.799C323.712 286.44 321.223 285.537 321.053 283.822C320.936 274.223 318.713 266.715 318.596 257.739C318.471 247.661 319.226 247.481 319.053 232.034L328.718 233.384C327.102 244.518 326.565 258.556 326.565 258.556C329.28 269.289 326.233 271.538 324.577 284.799Z" fill="#DE5840"/>
<path d="M329.32 222.905L328.783 237.791L327.449 257.806C327.449 257.806 329.926 269.552 325.134 281.354C325.134 281.354 321.562 282.676 320.01 281.781C320.01 281.781 317.586 261.688 317.586 260.589C317.586 259.49 316.074 225.044 316.074 225.044L329.32 222.905Z" fill="#36518A"/>
<path d="M300.808 284.988L305.286 280.062C306.233 279.7 307.268 279.608 308.268 279.799C308.473 279.827 308.661 279.928 308.794 280.083C308.928 280.237 308.998 280.434 308.991 280.635L309.088 281.471C309.209 282.868 309.379 283.332 308.478 283.779L303.128 286.42C302.012 287.233 298.933 286.777 300.808 284.988Z" fill="#313363"/>
<path d="M305.455 280.573C305.455 280.573 302.893 283.508 303.213 283.712C304.542 284.607 307.73 282.033 307.73 282.033C307.73 282.033 306.037 280.431 305.455 280.573Z" fill="#DE5840"/>
<path d="M308.607 281.291C307.682 282.904 305.314 281.868 305.213 280.149C305.472 270.553 303.54 262.967 303.778 253.991C304.045 243.917 304.809 243.764 305.237 228.321L314.842 230.028C312.798 241.095 311.706 255.102 311.706 255.102C314.002 265.926 310.781 268.1 308.607 281.291Z" fill="#DE5840"/>
<path d="M328.868 218.729C328.868 218.729 331.252 222.928 328.843 229.016C327.284 232.94 317.238 234.769 317.238 234.769L314.741 234.184L312.62 254.368C312.62 254.368 314.64 266.197 309.387 277.818C309.387 277.818 305.75 278.995 304.251 278.057C304.251 278.057 302.611 257.889 302.635 256.778C302.659 255.667 304.599 220.739 304.599 220.739L328.868 218.729Z" fill="#36518A"/>
<path d="M279.792 183.875C279.182 184.475 279.089 185.351 279.586 185.837L281.881 187.132C282.378 187.599 282.075 187.223 282.689 186.622C283.3 186.022 283.849 186.391 283.093 185.296L281.655 184.005C281.471 183.833 281.258 183.694 281.025 183.592C280.596 183.388 280.269 183.404 279.792 183.875Z" fill="#DE5840"/>
<path d="M309.306 202.215C313.589 202.116 312.624 198.321 312.624 198.321L308.647 191.187C305.936 190.519 299.507 193.459 294.254 194.605C293.619 194.581 292.997 194.425 292.43 194.146C291.864 193.868 291.365 193.474 290.969 192.992L283.445 185.492L281.425 186.905L286.678 197.23C288.48 201.249 294.759 201.587 295.794 201.736C295.802 201.736 304.211 202.328 309.306 202.215Z" fill="#6F92F2"/>
<path d="M345.52 228.27C346.26 227.83 346.563 227.002 346.199 226.433L344.288 224.644C343.92 224.074 344.122 224.51 343.383 224.95C342.643 225.393 342.199 224.907 342.651 226.127L343.726 227.697C343.864 227.906 344.038 228.09 344.239 228.242C344.615 228.56 344.938 228.619 345.52 228.27Z" fill="#DE5840"/>
<path d="M330.343 197.003C326.161 196.104 324.249 202.395 324.249 202.395C326.722 203.675 330.399 207.564 334.917 212.258C337.289 216.006 342.368 225.844 342.368 225.844L344.676 224.942L342.118 213.694C341.148 210.272 341.01 209.993 338.95 206.237C338.95 206.249 335.317 198.082 330.343 197.003Z" fill="#6F92F2"/>
<path d="M307.864 198.847C307.864 198.847 307.835 190.531 312.527 190.606C313.177 190.606 314.268 190.021 315.024 190.052C318.939 190.205 318.382 190.233 321.235 191.273C322.306 191.665 323.009 194.664 322.851 195.79L324.609 199.149L307.864 198.847Z" fill="#DE5840"/>
<path d="M310.915 190.398C311.678 190.288 312.684 190.092 312.587 190.527C312.147 192.427 312.317 193.726 312.991 194.283C317.073 197.642 319.105 192.96 319.53 191.3C319.602 191.014 319.986 190.602 320.277 190.774L321.825 191.363C332.375 191.83 329.527 196.536 327.522 200.896C327.522 200.896 323.772 207.984 323.72 211.119C323.671 213.831 326.229 217.991 326.714 218.851C327.349 219.969 323.696 227.061 312.923 225.997C304.437 225.162 303.847 221.912 303.964 217.422C304.041 214.601 305.69 206.704 305.617 204.471C305.544 202.238 303.75 200.813 304.93 197.207C306.11 193.6 306.87 191.147 306.87 191.147L310.915 190.398Z" fill="#6F92F2"/>
<path d="M329.337 218.678C328.852 217.815 326.367 213.227 326.415 210.515C326.443 208.741 325.874 202.76 326.552 200.311C325.183 203.058 324.181 205.833 323.045 207.917C321.671 210.53 321.288 213.53 321.962 216.39C323.057 221.312 320.152 224.93 316.458 226.158C324.544 225.581 329.894 219.667 329.337 218.678Z" fill="#6281D6"/>
<path d="M312.62 254.368L314.741 234.184L311.949 233.607L310.688 255.334C310.688 255.334 309.67 273.041 307.561 278.261L309.387 277.818C309.387 277.818 314.874 268.116 312.62 254.368Z" fill="#213361"/>
<path d="M313.97 186.12C313.699 188.616 315.149 189.919 317.202 189.028C319.255 188.137 320.112 185.103 320.524 182.635C320.722 181.457 320.245 179.103 318.184 179.986C316.123 180.869 314.24 183.62 313.97 186.12Z" fill="#DE5840"/>
<path d="M310.737 184.978C309.993 187.384 313.06 189.036 315.012 187.937C316.964 186.838 318.535 183.91 318.531 181.399C318.527 178.887 316.046 177.662 314.087 178.761C312.127 179.86 311.27 183.267 310.737 184.978Z" fill="#DE5840"/>
<path d="M317.206 192.741L317.473 192.682C317.683 192.636 317.882 192.548 318.056 192.424C318.23 192.3 318.377 192.143 318.485 191.962C318.594 191.78 318.663 191.579 318.689 191.371C318.714 191.163 318.695 190.952 318.632 190.751L317.161 185.9C317.027 185.482 316.737 185.127 316.348 184.905C315.958 184.684 315.498 184.612 315.056 184.703L314.79 184.766C314.579 184.811 314.379 184.899 314.205 185.023C314.03 185.146 313.884 185.304 313.775 185.485C313.666 185.666 313.597 185.868 313.572 186.076C313.547 186.285 313.567 186.496 313.63 186.697L314.325 191.516C314.587 192.376 316.309 192.945 317.206 192.741Z" fill="#DE5840"/>
<path d="M319.497 187.407C319.497 187.407 321.299 188.82 318.135 188.396C315.751 188.074 315.246 184.397 313.076 183.353C310.151 181.944 311.391 179.154 312.729 178.251C314.066 177.348 315.715 177.937 317.747 178.644C319.897 179.429 322.807 181.132 319.497 187.407Z" fill="#1B2D54"/>
<path d="M313.634 184.244C313.634 184.463 313.701 184.677 313.826 184.859C313.952 185.041 314.13 185.183 314.338 185.267C314.547 185.35 314.776 185.372 314.997 185.329C315.218 185.286 315.422 185.18 315.581 185.025C315.74 184.87 315.848 184.672 315.892 184.457C315.935 184.242 315.912 184.02 315.825 183.818C315.738 183.616 315.592 183.443 315.404 183.322C315.216 183.201 314.995 183.136 314.77 183.137C314.468 183.138 314.179 183.255 313.966 183.463C313.754 183.67 313.634 183.951 313.634 184.244Z" fill="#DE5840"/>
<path d="M320.693 180.888C320.693 180.888 322.714 185.048 325.664 185.374C328.613 185.7 332.787 188.314 333.996 192.882C335.204 197.45 339.451 197.199 339.77 200.339C340.089 203.478 338.513 205.417 335.927 202.238C334.335 200.276 328.585 204.883 327.757 200.276C326.928 195.668 324.851 198.439 321.695 196.375C318.54 194.31 318.269 192.878 316.442 187.376L317.731 184.629L320.693 180.888Z" fill="#1B2D54"/>
</g>
<defs>
<clipPath id="clip0_132_923">
<rect width="297" height="256" fill="white" transform="translate(79 45)"/>
</clipPath>
</defs>
</svg>
