<svg width="37" height="36" viewBox="0 0 37 36" fill="none" xmlns="http://www.w3.org/2000/svg">
<path d="M0.555176 18C0.555176 8.05888 8.61405 0 18.5552 0C28.4963 0 36.5552 8.05888 36.5552 18C36.5552 27.9411 28.4963 36 18.5552 36C8.61405 36 0.555176 27.9411 0.555176 18Z" fill="#25A8E0"/>
<path d="M25.5281 14.0081C25.0151 14.2357 24.4636 14.3895 23.8849 14.4586C24.4755 14.1045 24.9293 13.5438 25.1429 12.8757C24.59 13.2036 23.9777 13.4417 23.326 13.57C22.8041 13.0139 22.0606 12.6665 21.2377 12.6665C19.6576 12.6665 18.3765 13.9475 18.3765 15.5275C18.3765 15.7518 18.4018 15.9701 18.4506 16.1796C16.0727 16.0602 13.9645 14.9212 12.5534 13.1902C12.3071 13.6127 12.166 14.1042 12.166 14.6286C12.166 15.6212 12.6711 16.4969 13.4388 17.01C12.9699 16.9951 12.5286 16.8664 12.1429 16.6521C12.1427 16.6641 12.1427 16.676 12.1427 16.6881C12.1427 18.0744 13.1289 19.2307 14.4377 19.4936C14.1977 19.559 13.9449 19.594 13.684 19.594C13.4996 19.594 13.3204 19.576 13.1456 19.5426C13.5097 20.6792 14.5664 21.5065 15.8184 21.5295C14.8392 22.297 13.6055 22.7544 12.265 22.7544C12.0341 22.7544 11.8063 22.7408 11.5825 22.7143C12.8487 23.5261 14.3526 23.9998 15.9683 23.9998C21.2309 23.9998 24.1088 19.6402 24.1088 15.8593C24.1088 15.7353 24.106 15.6119 24.1005 15.4891C24.6595 15.0857 25.1446 14.5819 25.5281 14.0081Z" fill="white"/>
</svg>
